<?xml version="1.0" encoding="utf-8"?>
<!-- Generator: Adobe Illustrator 26.0.1, SVG Export Plug-In . SVG Version: 6.00 Build 0)  -->
<svg version="1.1" id="Слой_1" xmlns="http://www.w3.org/2000/svg" xmlns:xlink="http://www.w3.org/1999/xlink" x="0px" y="0px"
	 viewBox="0 0 4000 2500" style="enable-background:new 0 0 4000 2500;" xml:space="preserve">
<style type="text/css">
	.st0{fill:#E7F3FE;}
	.st1{fill:#CCE2FF;}
	.st2{opacity:0.5;fill:#9EC8FF;}
	.st3{fill:#FFFFFF;}
	.st4{fill:#303C60;}
	.st5{fill:#4476BD;}
	.st6{fill:#3E6BAB;}
	.st7{fill:#F09959;}
	.st8{fill:#A2DFF2;}
	.st9{fill:#96CFE0;}
	.st10{fill:#E38540;}
	.st11{fill:#F5DC95;}
	.st12{fill:#A8CEFF;}
	.st13{fill:#93BBF0;}
	.st14{fill:#75A1DE;}
	.st15{fill:#2E5B9A;}
	.st16{fill:#6791C9;}
	.st17{fill:#F37168;}
	.st18{fill:#D54A41;}
	.st19{fill:#F2E5DE;}
	.st20{fill:#A86B48;}
	.st21{fill:#7A4E34;}
	.st22{fill:#74B570;}
	.st23{fill:#9CD499;}
	.st24{opacity:0.5;fill:#FFFFFF;}
	.st25{fill:#94BDF2;}
	.st26{fill:#9EC8FF;}
	.st27{fill:#F39892;}
	.st28{clip-path:url(#SVGID_00000058587678160464476520000012338133296563295677_);fill:#A2DFF2;}
	.st29{clip-path:url(#SVGID_00000058587678160464476520000012338133296563295677_);fill:#9CD499;}
	.st30{clip-path:url(#SVGID_00000058587678160464476520000012338133296563295677_);fill:#9EC8FF;}
	.st31{clip-path:url(#SVGID_00000058587678160464476520000012338133296563295677_);fill:#F39892;}
	.st32{clip-path:url(#SVGID_00000058587678160464476520000012338133296563295677_);fill:#FFFFFF;}
	.st33{clip-path:url(#SVGID_00000058587678160464476520000012338133296563295677_);fill:#E7F3FE;}
	.st34{fill:#FFB8B3;}
	.st35{fill:#FAE8B6;}
</style>
<g>
	<path class="st0" d="M674.23,345.98c515.63-191.42,1039.69-22.19,1395.12,346.41c355.43,368.6,1101.36-254.41,1496.96,113.59
		c269.98,251.14,146.32,896.83-223.87,1176.5c-503.17,380.13-2377.71,391.54-2688.73,261.1
		c-531.48-222.9-3.39-635.68-251.48-1031.37C109.55,745.39,446.37,430.57,674.23,345.98z"/>
	<path class="st1" d="M3576.66,2133.69c-258.11-12.62-1136.14,8.76-1403.18,17.09c-267.04,8.33-577.01-11-738.02-39.42
		c-161.01-28.42-1091.73,2.42-1049.49,78.84c42.24,76.42,414.67,34.19,837.03,64.9c422.35,30.72,1372.24-3.84,1586.5,0
		c214.26,3.84,410.74-7.68,686.86-23.04S3726.27,2141,3576.66,2133.69z"/>
	<g>
		<path class="st2" d="M3016.88,451.52c1.02-9.12,1.56-18.39,1.56-27.78c0-4.96-0.16-9.87-0.45-14.76l-45.91-14.85
			c-2.83-19.35-8.38-37.82-16.25-55l30.44-37.46c-7.04-12.39-15.11-24.11-24.11-35.05l-45.91,14.98
			c-13.38-13.67-28.67-25.46-45.45-34.94l2.61-48.24c-12.81-5.83-26.21-10.6-40.08-14.2l-28.35,39.12
			c-11.05-1.86-22.4-2.84-33.98-2.84c-7.89,0-15.68,0.47-23.34,1.34l-26.25-40.57c-14.06,2.86-27.69,6.91-40.78,12.05l0.06,48.31
			c-17.29,8.59-33.17,19.56-47.24,32.49l-45.04-17.38c-9.57,10.46-18.26,21.74-25.94,33.73l28.42,39.02
			c-8.8,16.78-15.33,34.93-19.16,54.06l-46.62,12.41c-1.02,9.12-1.56,18.39-1.56,27.78c0,4.96,0.16,9.88,0.45,14.76l45.91,14.85
			c2.83,19.35,8.38,37.82,16.25,55l-30.44,37.46c7.04,12.39,15.11,24.11,24.11,35.05l45.91-14.98
			c13.38,13.67,28.67,25.46,45.45,34.94l-2.61,48.24c12.81,5.83,26.21,10.61,40.08,14.2l28.35-39.12
			c11.05,1.86,22.4,2.84,33.98,2.84c7.89,0,15.68-0.47,23.33-1.34l26.25,40.57c14.06-2.86,27.69-6.91,40.78-12.05l-0.06-48.31
			c17.29-8.59,33.18-19.56,47.24-32.49l45.04,17.38c9.57-10.46,18.26-21.74,25.94-33.73l-28.42-39.02
			c8.8-16.78,15.33-34.93,19.16-54.06L3016.88,451.52z M2771,520.79c-53.6,0-97.05-43.45-97.05-97.05
			c0-53.6,43.45-97.05,97.05-97.05c53.6,0,97.05,43.45,97.05,97.05C2868.05,477.34,2824.6,520.79,2771,520.79z"/>
		<g>
			<path class="st3" d="M2903.37,535.8c-1.13,0-2.26-0.38-3.19-1.16c-2.12-1.77-2.41-4.92-0.65-7.04
				c24.19-29.08,37.51-65.97,37.51-103.86c0-18.15-2.97-35.96-8.82-52.96c-0.9-2.61,0.49-5.46,3.1-6.36c2.61-0.9,5.46,0.49,6.36,3.1
				c6.21,18.04,9.37,36.96,9.37,56.21c0,40.22-14.14,79.38-39.82,110.26C2906.23,535.18,2904.8,535.8,2903.37,535.8z"/>
		</g>
		<g>
			<path class="st3" d="M2889.32,306.74c-1.23,0-2.46-0.45-3.43-1.36c-16.25-15.3-35.08-26.9-55.96-34.48
				c-2.6-0.94-3.94-3.81-3-6.41s3.81-3.94,6.41-2.99c22.16,8.04,42.15,20.35,59.4,36.6c2.01,1.89,2.11,5.06,0.21,7.07
				C2891.98,306.21,2890.65,306.74,2889.32,306.74z"/>
		</g>
		<g>
			<path class="st3" d="M2733.36,266.29c-2.24,0-4.27-1.51-4.84-3.78c-0.68-2.68,0.95-5.4,3.62-6.07
				c13.77-3.48,28.02-5.24,42.36-5.24c2.76,0,5,2.24,5,5c0,2.76-2.24,5-5,5c-13.51,0-26.94,1.66-39.91,4.94
				C2734.17,266.24,2733.76,266.29,2733.36,266.29z"/>
		</g>
	</g>
	<rect x="1074.89" y="181.98" class="st2" width="1546.45" height="928.88"/>
	<rect x="1150.23" y="204.65" class="st3" width="1454.92" height="852.73"/>
	<g>
		<path class="st4" d="M2390.87,645.34c69.33-66,187.83-64.5,185.33,36s5.8,109.95,34.33,162.67c99,182.93-118,172.17-208.5,178.17
			s-83-164.5-67-259S2370.58,664.66,2390.87,645.34z"/>
		<path class="st5" d="M2423.19,1221.58c-22.23,186.67-62.62,324.67-67.12,413.16c-4.5,88.5-22.5,436.94-22.5,436.94
			s49.5-3.46,54-10.96s93-203.99,88.5-325.48c-4.5-121.49,88.39-306.22,88.39-306.22l-22.39-181.25L2423.19,1221.58z"/>
		<path class="st6" d="M2444.54,1302.84l-34.76,14.55c-9.45,59.19-19.93,112.41-29.14,159.62c55.32,35.77,83.9,154.92,96.14,227.77
			c6.24-81.51,44.7-180.01,68.56-234.48L2444.54,1302.84z"/>
		<path class="st5" d="M2605.06,1202.76c0,0,74.92,95.57,72.57,203.99c-3.58,165.05-21.58,212.17,9.74,385.23
			c12.23,67.59-27,288.7-27,288.7s-33.51,2.63-51.51-6.33c1.5-16.25-21.66-280.52-66.76-402.01
			c-21.84-58.83-52.54-223.59-69.04-318.08c-16.5-94.5-19.5-113.99-13.5-113.99S2605.06,1202.76,2605.06,1202.76z"/>
		<path class="st7" d="M2178.21,937.34c0,0,3.33-49.45-2-64.73c-5.33-15.27-51.33-28.61-51.33-28.61s-2,70.67,2.67,79.33
			s32,33.33,32,33.33L2178.21,937.34z"/>
		<path class="st8" d="M2436.86,901.31c-105.33,113.37-139.7,161.07-147.7,161.07c-25-44.13-108.04-137.46-108.04-137.46
			l-35.41,22.76c0,0,81.82,213.77,133.82,215.98s157.69-73.72,159.04-82.44S2436.86,901.31,2436.86,901.31z"/>
		<path class="st9" d="M2327.01,1152.58c51.52-20.98,110.56-64.85,111.56-71.35c1.34-8.72-1.71-179.91-1.71-179.91
			c-22.96,24.71-43.01,46.63-60.4,65.8C2357.59,1037.38,2358.83,1113.89,2327.01,1152.58z"/>
		<path class="st8" d="M2543.87,826.68c0,0,100.79,50.52,122.79,139.95s-43.1,199.91-51.1,258.87c-8,58.96-191.99,69.33-191.99,6.22
			c0-60.5-46.1-188.94-43.5-221.65c6.1-76.76,118.31-170.79,118.31-170.79L2543.87,826.68z"/>
		<path class="st7" d="M2514.58,710.83l43.27,133.43c0,0-46.2,35.65-125.27,121.42c3.07-57.07,50.89-119.29,50.89-119.29l-32.73-126
			L2514.58,710.83z"/>
		<path class="st10" d="M2534.76,773.06l-20.18-62.24l-63.85,9.56l32.73,126c0,0-3.19,5.09-7.91,13.1
			C2506.39,836.6,2525.31,808.12,2534.76,773.06z"/>
		<path class="st7" d="M2490.74,740.94c-11.67,42.46-56.86,65.84-88.98,57.01c-32.11-8.83-38.98-46.51-27.31-88.97
			c11.67-42.46,47.16-69.73,79.28-60.9C2485.84,656.9,2502.41,698.48,2490.74,740.94z"/>
		<path class="st8" d="M2415.53,1171.89c14.01,88.79-38.01,278.74-38.01,278.74s31.02,7.05,124.02-1.95s134-101.82,148-104.41
			c14-2.59,21.19,86.38,28.1,93.41c6.9,7.03,7.96-112.35-10.1-159.28c-32-83.19-25.73-118.48-13.77-168.89
			C2675.03,1019.88,2415.53,1171.89,2415.53,1171.89z"/>
		<path class="st5" d="M2335.83,2027.98c8.37,34.03-8.16,61.03-30.29,80.7c-18,16-73.33,22.8-70.67,30.8c2.67,8,68,10.54,90,7.2
			c22-3.33,28-14,55.38-13.99c17.95,0.01,21.28-14.59,13.28-32.64s-10.8-28.02-3.57-44.2
			C2397.2,2039.68,2335.83,2027.98,2335.83,2027.98z"/>
		<path class="st5" d="M2662.31,2027.98c-1.33,35.33-5.44,61.66,3.23,78.03c33.47,28,61.29,59.8,50.67,62
			c-50.67,10.46-70-19.9-98.67-28.54c-35.18-10.59,3.33-54.8-10.45-111.5c-7.66-31.52,53.12-23.97,53.12-23.97L2662.31,2027.98z"/>
		<path class="st9" d="M2675.1,1307.36c-2.02-11.08-4.52-21.05-7.56-28.96c-32-83.19-25.73-118.48-13.77-168.89
			c0.94-3.97,1.32-7.46,1.21-10.52c2.7-8.99,5.21-18.1,7.42-27.26l-10.86-98.04l-78.31-93c-58.69,86-19.08,193-27.89,252
			c-8.8,59-107.14,134.23-107.14,134.23l3.2,20.93c4.39,28.72,31.01,48.66,59.78,44.67c40.53-5.62,93.7-16.93,117.36-38.88
			C2641.43,1272.38,2661.71,1288.82,2675.1,1307.36z"/>
		<path class="st7" d="M2461.19,1263.53c0,0-43.41,12.15-48.6,14.86s-8.06,17.07-8.06,17.07s-24.85,21.58-15.33,29.22
			c9.52,7.64,26.52,26.99,49,17.99c13.8-5.52,24.49-56.21,33.53-56.62C2480.78,1285.64,2461.19,1263.53,2461.19,1263.53z"/>
		<path class="st8" d="M2584.14,869.34c46.46,1.32,88.59,85,103.27,157.6c14.68,72.6,30.13,175.81,30.13,175.81
			s-77,60.77-153.08,78.53c-66.37,15.49-100.25,21.55-100.25,21.55l-13.46-37.89l158.8-93.27c0,0-58.39-110-64.2-193
			C2539.54,895.68,2548.83,868.34,2584.14,869.34z"/>
		
			<rect x="2027.59" y="838.25" transform="matrix(0.9805 -0.1967 0.1967 0.9805 -131.5098 427.6169)" class="st11" width="118.13" height="75.02"/>
		<path class="st7" d="M2150.35,931.34c1.6-30.42-13.47-71.92-22.14-71.86c-8.67,0.06,2.67,27.19-2,45.19
			C2123.68,914.43,2150.35,931.34,2150.35,931.34z"/>
		<path class="st4" d="M2382.96,661.34c2.57,83.33,99.91,76.94,126.57,71.81c26.67-5.14-32.46,175.81,18.33,186.25
			c37.3,7.67,28.9-50.68,70.33-46.78c18.33,1.73,36.76,30.06,36.76,30.06s-2.76-17.46-16.76-30.06
			c-14-12.61-50.7-89.94-60.35-145.27c-9.65-55.33-74.98-91.12-94.31-92.23c-19.33-1.11-66.67,20.89-66.67,20.89L2382.96,661.34z"/>
		<g>
			<path class="st4" d="M2527.01,938.26c-1.32,0-2.65-0.14-4.01-0.43c-16.26-3.46-24.14-20.55-24.81-53.77
				c-0.57-28.48,4.13-65.03,9.12-103.72c2.01-15.63,4.1-31.8,5.81-47.45c0.15-1.34,1.34-2.31,2.69-2.16
				c1.34,0.15,2.3,1.35,2.16,2.69c-1.72,15.7-3.81,31.89-5.82,47.55c-9.64,74.87-18.75,145.58,11.87,152.1
				c0.95,0.2,1.9,0.3,2.85,0.3c17.59,0,33.43-34.28,42.67-67.67c0.36-1.3,1.7-2.06,3-1.7c1.3,0.36,2.06,1.7,1.7,3
				C2568.12,889.03,2551.73,938.26,2527.01,938.26z"/>
		</g>
		<g>
			<path class="st4" d="M2520.5,957.63c-5.54,0-10.37-2.15-14.4-6.4c-33.18-35.07-0.37-211.06,1.04-218.53
				c0.25-1.32,1.53-2.19,2.85-1.94c1.32,0.25,2.19,1.52,1.94,2.85c-0.34,1.81-33.77,181-2.29,214.28c3.66,3.87,7.99,5.41,13.24,4.72
				c17.23-2.28,27.18-25.65,35.95-46.28c8.51-20.01,16.52-38.9,30.78-38.41c1.34,0.05,2.4,1.18,2.35,2.52
				c-0.05,1.35-1.18,2.43-2.52,2.35c-0.12,0-0.24-0.01-0.35-0.01c-10.69,0-18.02,17.23-25.78,35.45
				c-9.29,21.83-19.81,46.56-39.8,49.2C2522.5,957.56,2521.49,957.63,2520.5,957.63z"/>
		</g>
		<path class="st7" d="M2513.15,749.16c-6.86,8.84-17.61,11.98-24.01,7.02c-6.4-4.97-6.03-16.16,0.83-25
			c6.86-8.84,17.61-11.98,24.01-7.02C2520.38,729.12,2520.01,740.32,2513.15,749.16z"/>
	</g>
	<g>
		<path class="st4" d="M1756.88,1057.74c23.76,47.52,4.09,102.24-42.64,121.57c-47.04,19.46-98.48,8.41-122.24-39.11
			c-23.76-47.52-6.11-104.5,39.42-127.27C1676.94,990.17,1733.11,1010.23,1756.88,1057.74z"/>
		<g>
			<path class="st4" d="M1628.78,1185.02c-5.25,0-15.58-1.85-28.73-13.52c-10.78-9.57-18.53-24.24-21.8-41.3
				c-4.13-21.54-1.44-46.31,8-73.62c0.44-1.27,1.82-1.95,3.1-1.51c1.27,0.44,1.95,1.83,1.51,3.1c-9.16,26.49-11.79,50.41-7.82,71.11
				c3.07,16.02,10.26,29.72,20.25,38.58c16.67,14.79,27.84,12.1,27.96,12.07c1.29-0.34,2.63,0.43,2.98,1.71
				c0.35,1.29-0.39,2.62-1.67,2.98C1632.39,1184.67,1631.07,1185.02,1628.78,1185.02z"/>
		</g>
		<g>
			<path class="st12" d="M1701.45,1242.65c27.05,6.06,61.19,81.21,77.91,129.36c16.86,48.56,45.45,108.8,64.17,127.52
				c18.72,18.72,141.71,62.11,141.71,62.11s-303.89,0.59-297.67-0.01C1693.8,1561.02,1701.45,1242.65,1701.45,1242.65z"/>
			<path class="st13" d="M1862.78,1537.49c-16.64-2.38-76.65,5.35-51.1-5.35c25.55-10.7,21.99-24.36,21.99-24.36
				s-36.25,30.3-42.78,3.8c-5.64-22.85-7.79-103.52-29.18-184.38c-17.67-40.09-40.8-80.2-60.25-84.56c0,0-0.68,28.47-1.81,68.39
				c7.46,88.34,20.13,218.12,23.34,250.83c40.28,0.06,107.69,0,164.09-0.07l37.51-1.79
				C1924.58,1560,1879.42,1539.87,1862.78,1537.49z"/>
			<path class="st12" d="M1602.02,1226c0,0-86.03,48.07-106.08,58.29c-20.05,10.22,56.18,310.27,73.14,323.13
				c16.95,12.86,166.22,2.21,183.22-13.99s-13.04-65.92,1.67-165.47c14.71-99.55-44.86-185.5-52.51-185.31
				c-7.65,0.19-57.59-16.65-57.59-16.65H1602.02z"/>
			<path class="st13" d="M1569.08,1607.42c16.95,12.86,123.77,13.15,169.23-1c5.13-1.6,28.43-10.88,28.98-19.61
				c-5.49-1.03-27.27,1.59-36.12-0.45c-30.75-7.07-47.68-45.16-47.68-45.16s-16.93-6.09-54.81-22.13
				c-37.88-16.04-22.28-64.62-23.17-86.01c-0.89-21.39-37.43-91.36-106.06-144.39l-6.3,2.82
				C1488.24,1340.25,1553.39,1595.52,1569.08,1607.42z"/>
			<g>
				<path class="st14" d="M2160.11,1372.01h-207.15l-94.34,200.77h228.17l85.4-181.74
					C2176.36,1382.18,2169.9,1372.01,2160.11,1372.01z"/>
				<g>
					<path class="st6" d="M1870.97,1575.62h-124.65c-7.73,0-14-6.27-14-14s6.27-14,14-14h115.71l78.24-168.38
						c3.26-7.01,11.58-10.05,18.6-6.8c7.01,3.26,10.05,11.58,6.8,18.6l-82,176.48C1881.37,1572.46,1876.42,1575.62,1870.97,1575.62z
						"/>
				</g>
			</g>
			<path class="st7" d="M1654.81,1532.74c54.07,10.1,67.37,22.52,96.84,27.27c33.41,5.39,29.44,12.77,4.62,12.77
				c-24.82,0-87.18,0.96-108.58-3.79C1626.29,1564.23,1654.81,1532.74,1654.81,1532.74z"/>
			<path class="st12" d="M1489.18,1289.92c-41.44,132.5-100.19,282.85-90.83,282.85c9.36,0,247.32,9.62,256.68,1.61
				s6.69-38.76,5.35-42.77s-135.29-27.78-135.29-27.78s17.64-34.38,24.32-101.56C1556.1,1335.09,1497.04,1264.79,1489.18,1289.92z"
				/>
		</g>
		<path class="st7" d="M1633.53,1110.86l-33.38,121.99c0,0,56.41,88.05,71.92,80.23s-8.67-71.57-8.67-80.23s24.18-98.04,24.18-98.04
			L1633.53,1110.86z"/>
		<path class="st10" d="M1664.55,1239.07c-0.72-2.89-1.16-5.05-1.16-6.22c0-8.66,24.18-98.04,24.18-98.04l-54.04-23.95l-11.05,40.37
			C1632.13,1192.93,1649.54,1220.7,1664.55,1239.07z"/>
		<path class="st7" d="M1758.44,1108.84c6.36,35.37,2.17,82.36-29.24,94.3c-31.41,11.95-69.25-10.91-84.51-51.04
			c-15.26-40.14-2.17-82.36,29.24-94.3C1705.34,1045.85,1750.84,1066.58,1758.44,1108.84z"/>
		<path class="st7" d="M1652.13,1128.75c4.4,12.37,0.58,25.02-8.54,28.27c-9.12,3.25-20.08-4.15-24.49-16.51
			c-4.4-12.37-0.58-25.02,8.54-28.27C1636.76,1108.99,1647.73,1116.38,1652.13,1128.75z"/>
		<path class="st4" d="M1758.81,1064.4c-10.69,83.01-111.55,72.32-111.55,72.32s-20.8-27.34-30.16-13
			c-9.36,14.34,12.98-84.16,70.85-87.26C1706.97,1035.43,1758.81,1064.4,1758.81,1064.4z"/>
		<ellipse class="st4" cx="1601.67" cy="1029.3" rx="54.62" ry="51.25"/>
	</g>
	<g>
		<g>
			<polygon class="st15" points="1492.87,2175.94 1505.36,2175.94 1586.02,1802.23 1558.54,1802.23 			"/>
			<polygon class="st15" points="1881.22,2175.94 1868.73,2175.94 1774.86,1789.02 1802.34,1789.02 			"/>
			<g>
				<path class="st15" d="M1635.39,1816.23c-50.04,0-81.74-8.99-101.97-28.69c-25.08-24.43-30.27-62.27-30.34-111.57
					c-0.06-38.8-0.98-64.07-3.09-84.5c-0.79-7.69,4.8-14.57,12.49-15.36c7.69-0.79,14.57,4.8,15.36,12.49
					c2.2,21.41,3.17,47.53,3.23,87.32c0.08,49.97,6.42,76.49,21.88,91.56c15.86,15.45,44.55,21.83,92.98,20.62
					c46.77-1.15,78.96-7.7,104.83-12.96c34.02-6.91,58.61-11.91,87.76,2.02c6.98,3.33,9.93,11.69,6.6,18.67s-11.69,9.93-18.67,6.6
					c-20.69-9.89-38.24-6.32-70.11,0.16c-26.95,5.48-60.48,12.29-109.72,13.51C1642.79,1816.18,1639.04,1816.23,1635.39,1816.23z"/>
			</g>
		</g>
		<path class="st15" d="M1521.71,1574.38l76.59,3.19l-20.39,211.47c0,0-57.09-36.44-56.2-75.66
			C1522.61,1674.16,1521.71,1574.38,1521.71,1574.38z"/>
		<path class="st7" d="M1899.81,1594.08c64.77-9.83,86.77-6.73,126.41,67.04c39.63,73.76,92.4,206.58,122.74,223.73
			c45.69,25.83,60.83,89.17,79.59,86.32c18.76-2.85,30.83,5.45,10.42,22.41c-20.41,16.97-53.38,31.41-64.65,28.4
			c-11.27-3.01-20.01-51.72-49.46-67.53c-29.44-15.82-20.6-28.81-18.66-42.8c1.93-13.99-85.94-78.39-152.19-158.49
			c-40.48-48.94-61.32-81.25-64.41-110.53C1886.5,1613.35,1899.81,1594.08,1899.81,1594.08z"/>
		<path class="st10" d="M2060.36,1861.56c-15.04-38.16-30.13-101.14-44.31-158.88c-20.17-82.11-41.31-101.61-54.7-110.37
			c-16.19-4.06-35.38-2.2-61.54,1.77c0,0-13.3,19.27-10.21,48.55c3.09,29.28,23.93,61.58,64.41,110.53
			C1988.88,1795.33,2029.75,1833.15,2060.36,1861.56L2060.36,1861.56z"/>
		<path class="st15" d="M1919.53,1659c0,0-17.23,130.02-33.28,143.23c-11.48,9.45-19.61,10.08-27.63-28.7
			c-8.02-38.78,12.48-183.51,12.48-183.51L1919.53,1659z"/>
		<polygon class="st7" points="1905.8,1729.36 1746.32,1756.16 1836.36,1627.05 1904.88,1613.1 1945.97,1622.55 		"/>
		<path class="st15" d="M2106.19,1911.65c-5.17,20.84-4.55,36.24,4.44,43.96c8.98,7.72,42.93,65.07,42.93,65.07l10.57-1.6
			l-24.48-52.48L2106.19,1911.65z"/>
		<path class="st15" d="M2174.31,2021.98c11.27,3.01,44.24-11.43,64.65-28.4c20.41-16.97,8.34-25.26-10.42-22.41
			c-1.06,0.16-2.1,0.09-3.14-0.16c-9.37,20.93-40.19,36.63-50.13,14.52c-9.85-21.91-52.08-65.52-69.09-74.85
			c0.04,0.34,0.05,0.67,0.01,0.97c-1.93,13.99-10.78,26.98,18.66,42.8C2154.29,1970.26,2163.04,2018.97,2174.31,2021.98z"/>
		<path class="st10" d="M1574.3,1599.29c-56.58,101.54-17.93,166.08,50.84,172.65c68.77,6.58,177.33-5.98,240.62-58.57
			c63.28-52.59,115.23-108.19,107.97-116.49S1574.3,1599.29,1574.3,1599.29z"/>
		<path class="st7" d="M1895.17,1675.05c11.59-34.76,24.94-61.43,50.8-61.91c27.19-0.51,43.91,13.64,45.08,58.12
			c1.38,52.97,3.25,228.39,0.8,306.39c-1.85,59.04,15.36,77.95,13.9,139.5c-1.09,46.36,48.33,22.94,29.24,46.98
			c-13.13,16.53-52.21,11.13-76.21,8.07c-21.39-2.72,11.07-66.82-18.53-83.96c-25.4-14.71-25.9-38.58-9.86-56.66
			c16.04-18.07,1.78-71.55-8.91-108.99c-10.7-37.43-27.28-77.93-38.18-166.45C1880.19,1730.92,1888.09,1696.28,1895.17,1675.05z"/>
		<path class="st15" d="M2018.08,2145.2c-8.19,2.5-18.28,5.25-27.08,5.54c-17.83,0.59-23.17-19.01-24.36-45.65
			c-1.04-23.26-17.93-59.88-35.25-74.74c-0.32,0.42-0.65,0.84-0.99,1.23c-16.04,18.07-15.54,41.95,9.86,56.66
			c29.6,17.14-2.86,81.24,18.53,83.96c24,3.05,63.08,8.46,76.21-8.07C2047.4,2148.5,2032,2147.26,2018.08,2145.2z"/>
		<path class="st15" d="M1934.4,2024.96c0,0-26,27.15-23.62,38.44c2.38,11.29,10.39,39.81,11.73,61.8s2.53,47.22,2.53,47.22
			s9.36,0,10.1-2.66c0.74-2.66,5.94-89.36,5.94-89.36L1934.4,2024.96z"/>
		<path class="st14" d="M1547.05,1590.03c0,0-33.56,142.43,8.84,181.91s218.48,3.97,259.95,1.6c28.08-1.6,55.26,32.67,55.26,32.67
			s-19.61-79.46-6.24-143.64c13.37-64.17,34.94-68.49,34.94-68.49l-28.71-4.04H1547.05z"/>
		<path class="st12" d="M1539.45,1552.79c14.35,30.45-15.45,83.04-5,98.19c10.44,15.15,70.23,2.12,109.41-29.41
			c39.18-31.54,113.34-38.47,113.34-38.47L1539.45,1552.79z"/>
		<path class="st15" d="M1600.15,1812.31c118.55,4.46,243.33,2.35,243.33-15.31c0-17.66-5.35-30.14-97.15-23.01
			c-91.8,7.13-154.19,16.94-181.82,10.7S1600.15,1812.31,1600.15,1812.31z"/>
	</g>
	<path class="st15" d="M2864.29,1605.04H1194.07c-7.13,0-12.91-5.78-12.91-12.91v-6.45c0-7.13,5.78-12.91,12.91-12.91h1670.21
		c7.13,0,12.91,5.78,12.91,12.91v6.45C2877.2,1599.26,2871.42,1605.04,2864.29,1605.04z"/>
	<g>
		<path class="st7" d="M3086.22,1140.27c11.49,40.49-16.56,82.21-47.46,90.98c-30.9,8.76-52.95-18.75-64.43-59.23
			c-11.48-40.49,4.25-80.41,35.15-89.18S3074.73,1099.78,3086.22,1140.27z"/>
		<path class="st7" d="M2912.98,1924.82c0,0,79.19,122.99,89.88,128.34s37.43,6.68,27.41,26.74
			c-10.03,20.05-14.04,98.93-23.4,102.94s-89.57,13.37-77.54,0c12.03-13.37,19.43-6.68,25.5-30.75c6.07-24.06,14.6-69.52,3.24-78.88
			c-11.36-9.36-80.88-93.58-80.88-93.58L2912.98,1924.82z"/>
		<path class="st7" d="M2514.42,1977.64c0,0-96.26,158.65-114.09,172.91s-76.65,35.65-28.52,39.22s71.3-16.04,101.61-24.96
			s67.74-14.26,53.48-37.43s-8.34-73.76,22.41-105.85C2580.05,1989.44,2514.42,1977.64,2514.42,1977.64z"/>
		<path class="st16" d="M3005.65,1609.75c0,0-238.29-6.23-332.77,71.3c-55.26,83.78-188.95,330.98-199.34,358.22
			c7.13,7.13,47.24,20,65.07,18.21c52.59-62.7,122.09-116.91,149.74-166.09c34.07-60.61,44.56-90.91,99.83-96.26
			s180.04-23.17,217.48-23.17S3005.65,1609.75,3005.65,1609.75z"/>
		<polygon class="st15" points="3213.45,2190.2 3200.96,2190.2 3111.39,1816.49 3138.87,1816.49 		"/>
		<polygon class="st15" points="2839.27,2190.2 2851.77,2190.2 2954.55,1803.28 2927.07,1803.28 		"/>
		<path class="st14" d="M3141.4,1593.43l-138.54,23.91c0,0-184.1,1.69-268.26,17.37c-76.56,14.26-87.84,101.25,0,221.04
			c49.9,68.05,92.09,122.33,178.37,183.53c21.95-16.11,30.34-22.21,36.41-60.98c-6.25-8.56-22.41-62.15-27.43-72.64
			c-47.72-99.76-111.42-136.04-112.31-145.85c10.7-17.38,283.3,90.59,337.5,27.08C3198.91,1726.25,3141.4,1593.43,3141.4,1593.43z"
			/>
		<path class="st17" d="M3147.16,1279.79c-36.49-5.12-73.65,1.81-108.4,26.98c-30.37,30.96-64.73,82.01-62.63,166.22
			c2.67,106.95-16.55,113.82,3.5,143.23c83.64,34.54,226.68,182.93,193,23.84c-24.39-115.19,53.5-201.06-9.34-328.83
			C3158.17,1300.82,3151.78,1290.73,3147.16,1279.79z"/>
		<path class="st18" d="M2976.1,1513.23c-1.63,55.76-9.5,72.18-3.48,89.66c34.1,3.48,96.47,17.12,112.05,38.95
			c17.83,24.96,35.65,28.52,27.33,10.1c-8.32-18.42-30.3-44.56,3.57-134.29c33.87-89.72,49.91-150.33,16.64-212.72L2976.1,1513.23z"
			/>
		<path class="st7" d="M3147.16,1279.79c-22.47-53.19-27.99-112.95-27.99-112.95l-58.82,17.38c0,0,33.42,74.86,1.34,101.6
			c-6.82,5.68-14.73,12.58-22.93,20.94C3073.51,1281.6,3110.67,1274.66,3147.16,1279.79z"/>
		<path class="st10" d="M3120.94,1181c-3.48-3.1-7.84-6.97-12.42-11.02l-47.98,14.18c-0.03,0.09-0.07,0.17-0.1,0.26
			c1.16,2.65,13.38,31.17,14.99,58.6c14.3-8.67,29.95-22.82,47.85-47.53C3122.31,1190.01,3121.54,1185.12,3120.94,1181z"/>
		<path class="st7" d="M3105.8,1296.51c-60.59,21.19-53.87,85.01-109.62,179.14c-28.86,48.71-55.66,47.99-55.66,47.99
			s-67.68,0.54-149.53-9.47c-51.26-6.27-54.51,8.99-18.86,21.74c71.9,25.71,146.51,53.38,206.67,46.69
			c60.16-6.68,163.05-160.18,168.36-200.14C3154.5,1327.21,3136.31,1285.84,3105.8,1296.51z"/>
		<g>
			<path class="st15" d="M3074.62,1830.5c-3.76,0-7.6-0.05-11.56-0.15c-49.24-1.22-82.77-8.03-109.72-13.51
				c-31.86-6.48-49.42-10.04-70.11-0.16c-6.98,3.33-15.33,0.38-18.67-6.6s-0.38-15.33,6.6-18.67c29.15-13.93,53.73-8.93,87.76-2.02
				c25.87,5.26,58.06,11.8,104.83,12.96c52.67,1.3,84.89-6.59,101.35-24.85c14.7-16.3,19.03-43.48,13.62-85.52
				c-1.83-14.24-3.66-26.08-5.28-36.53c-4.53-29.31-7.53-48.67-3.83-78.52c3.45-27.83,12.68-64.95,34.07-136.98
				c2.2-7.41,9.99-11.63,17.41-9.44c7.41,2.2,11.64,9.99,9.44,17.41c-40,134.73-37.97,147.88-29.41,203.25
				c1.64,10.61,3.5,22.64,5.38,37.23c6.53,50.75-0.02,85.02-20.6,107.84C3164.68,1819.78,3130.1,1830.5,3074.62,1830.5z"/>
		</g>
		<path class="st18" d="M2520.96,2111.36c-63.87,31.24-98.25,49.14-118.72,47.43c-4.83-0.4-8.84-0.9-12.2-1.42
			c-22.78,13.46-59.14,29.37-18.23,32.4c48.13,3.57,71.3-16.04,101.61-24.96c30.3-8.91,67.74-14.26,53.48-37.43
			C2524.17,2122.94,2522.18,2117.49,2520.96,2111.36z"/>
		<path class="st18" d="M3009.83,2055.77c-1.56,50.57-8.51,100.68-39.44,110.15c-8.2,2.51-15.67,2.87-22.28,1.99
			c-4.86,6.01-10.8,6.08-18.77,14.93c-12.03,13.37,68.18,4.01,77.54,0c9.36-4.01,13.37-82.89,23.4-102.94
			C3038.51,2063.43,3021.93,2059.58,3009.83,2055.77z"/>
		<g>
			<path class="st14" d="M2763.8,1575.62h-202.91c-5.45,0-10.4-3.16-12.7-8.1l-82-176.48c-3.26-7.01-0.21-15.34,6.8-18.6
				c7.01-3.26,15.34-0.21,18.6,6.8l78.24,168.38h193.98c7.73,0,14,6.27,14,14S2771.54,1575.62,2763.8,1575.62z"/>
		</g>
		<path class="st7" d="M2806.25,1515.94c-41-0.59-81.66-25.03-101.86-21.47c-20.2,3.57-86.16,49.32-77.84,51.1
			c8.32,1.78,60.61-25.32,62.39-25.73c1.78-0.41,13.07,18.77,41,25.82c27.93,7.05,0.2-20.93,86.77,5.21
			C2873,1567.88,2806.25,1515.94,2806.25,1515.94z"/>
		<path class="st19" d="M3141.12,1231.25l6.03,48.54c0,0-53.05,3.16-79.46,18.01c-26.4,14.86-65.36,57.77-65.36,57.77l31.83-54.8
			l4.58-35.06L3141.12,1231.25z"/>
		<path class="st19" d="M3118.55,1290.67c-39.41-7.38-57.64,27.93-83.19,85.56c-25.55,57.64-69.17,127.64-77.84,136.67
			s-146.17,0-146.17,0s-4.16,39.81,0,44.56c4.16,4.75,27.93,4.16,27.93,4.16s9.51,7.59,18.42,13.6s84.38,17.3,119.43,15.52
			c35.06-1.78,67.14-4.75,71.9-10.1c4.75-5.35,100.42-152.71,106.36-205.59C3161.33,1322.16,3138.66,1294.44,3118.55,1290.67z"/>
		<path class="st4" d="M3002.34,1048.23c-74.53,3.57-62.84,115.69-62.84,115.69s19.36,5.98,59.91-0.71
			c-3.12-12.03-1.78-42.78-1.78-42.78s4.71,24.96,10.7,40.11c8.57,3.93,18.27,0.45,34.76-3.54c8.47,35.63,32.39,50.68,48.78,55.83
			c18.1,5.69,37.26,12.48,58.65,1.78c21.39-10.7,9.63-120.03-1.73-142.01c-17.05-33-45.39-62.54-94.41-46.94
			C3029.79,1033.48,3002.34,1048.23,3002.34,1048.23z"/>
		<path class="st4" d="M3131.95,1181.39l30.47,44.51c0,0-33.77,84.38,64.45,122.6c76.92,29.94,67.86,82.69,33.1,135.74
			c-34.76,53.05,20.8,99.38,20.8,99.38s8.47-58.77,83.21-69.86c101.9-15.12,130.76-151.94,54.64-220.35
			c-62.98-56.61-82.15-9.73-124.78-60.53c-42.63-50.8-123.12-16.49-123.12-16.49l-29.5-43.02L3131.95,1181.39z"/>
		<g>
			<path class="st4" d="M3453.67,1430.96c-0.4,0-0.8-0.1-1.17-0.3c-1.18-0.65-1.61-2.13-0.97-3.31
				c25.68-46.94,4.73-103.81-5.82-119.21c-1.11-1.63-2.17-3.28-3.29-5.02c-10.36-16.17-23.26-36.3-91.99-48.67
				c-16.46-2.96-29.82-12.77-43.96-23.15c-29.32-21.53-62.55-45.92-134.75-12.69c-1.22,0.56-2.67,0.03-3.23-1.19
				c-0.56-1.22-0.03-2.67,1.19-3.23c74.81-34.43,109.27-9.13,139.67,13.19c13.67,10.04,26.58,19.52,41.94,22.28
				c70.82,12.75,84.36,33.87,95.23,50.84c1.1,1.71,2.13,3.33,3.21,4.9c6.35,9.28,14.2,28.51,17.41,50.54
				c2.79,19.11,3.08,47.41-11.34,73.76C3455.37,1430.5,3454.53,1430.96,3453.67,1430.96z"/>
		</g>
		<g>
			<path class="st4" d="M3115.67,1226.72c-4.86,0-10.12-0.42-15.79-1.27c-25.98-3.89-60.83-18.67-63.57-101.67
				c-0.04-1.34,1.01-2.47,2.35-2.51c1.38-0.06,2.47,1.01,2.51,2.35c1.13,34.36,7.96,59.79,20.28,75.59
				c9.38,12.03,21.82,18.83,39.14,21.43c24.26,3.63,40.34-0.87,47.81-13.37c0.69-1.15,2.19-1.53,3.34-0.84
				c1.15,0.69,1.53,2.19,0.84,3.34C3145.86,1221.04,3133.47,1226.72,3115.67,1226.72z"/>
		</g>
	</g>
	<g>
		<path class="st9" d="M789.67,1285.62c-86.5,49.46-206.82,255.08-181.42,288.63c25.4,33.56,161.76-54.68,161.76-54.68
			L789.67,1285.62z"/>
		<path class="st4" d="M951.28,1047.18c-33.03-0.9-20.77-25.45-58.76-15.65c-19.97,5.15-5.23,13.37-31.17,10.7
			c-25.94-2.67-38.71-5.35-41.98,11.59s-4.85,22.28-17.33,24.96c-12.48,2.67-18.11,24.96,0,40.11c18.11,15.15,9.31,21.39,5.3,33.87
			c-4.01,12.48,9.66,13.37,17.09,24.96c7.43,11.59-6.84,13.78,3.86,23.82c10.7,10.05,25.7,9.15,25.7,9.15l45.03-86.33
			L951.28,1047.18z"/>
		<path class="st15" d="M1624.26,2083.39c0,0,48.13,1.34,85.56-13.37c37.43-14.71,62.83-37.43,56.15-10.7
			c-6.68,26.74-37.43,72.61-64.17,77.08c-26.74,4.47-36.1,33.88-50.8,33.88s-36.1-33.88-73.53-50.82
			C1543.35,2104.04,1624.26,2083.39,1624.26,2083.39z"/>
		<path class="st15" d="M1244.98,2078.88c0,0,20.24,27.91,55.47,47.33c36.38,20.05,78.36,29.71,52.33,38.78s-64.08,16.12-101.2,5.34
			c-26.03-7.56-56.55-9.14-64.62-21.44c-8.06-12.3,9.49-43.19,2.19-89.35C1183.31,2022.54,1244.98,2078.88,1244.98,2078.88z"/>
		<path class="st6" d="M1019.62,1630.22c0,0,278.8,104.39,301.26,133.57c22.46,29.18,315.52,295.02,315.52,314.63
			s-49.91,55.26-49.91,55.26s-251.35-154.19-313.74-232.63c-62.39-78.43-214.66-116.25-295.61-123.51
			S1019.62,1630.22,1019.62,1630.22z"/>
		<path class="st5" d="M1030.31,1630.22c0,0,190.74-7.13,231.74,0c41,7.13,130.93,7.05,72.11,173.06
			c-46.1,130.12-61.32,294.86-61.32,294.86l-91.67,22.52c0,0,3.64-296.23,47.38-375.11c-31.86,5.25-90.33,15.5-171.36,38.67
			c-150.33,42.99-232.76,21.46-232.76,21.46l-22.38-78.43L1030.31,1630.22z"/>
		<polygon class="st20" points="871.03,1137.76 824.43,1275.46 883.3,1314.23 916.67,1195.25 		"/>
		<path class="st21" d="M888.57,1295.45l28.1-100.21l-45.64-57.49l-17.05,50.37C859.87,1233.62,874.08,1271.25,888.57,1295.45z"/>
		<path class="st20" d="M989.91,1161.07c1.51,41.88-19.06,78.13-51.76,81.35c-32.7,3.22-62.54-27.97-66.65-69.68
			c-4.11-41.71,19.06-78.13,51.76-81.35C955.96,1088.17,987.52,1094.98,989.91,1161.07z"/>
		<path class="st8" d="M802.04,1271.45c-143.06,96.61-54.08,252.73-22.67,366.82c26.76,97.17,25.88,155.9,29.89,155.9
			c4.01,0,102.4-14.71,158.54-65.51c56.15-50.8,94.11-100.01,94.11-100.01s-71.94-12.81-95.45-105.87
			c-11.94-47.25-6.51-72.9-33.72-147.76C905.55,1300.16,802.04,1271.45,802.04,1271.45z"/>
		<path class="st8" d="M802.04,1271.45l15.32-37.49c0,0,48.58,32.09,67.96,47.24c19.39,15.15,31.34,18.72,31.34,18.72
			s7.01,53.74,2.46,48.86C861.79,1287.33,802.04,1271.45,802.04,1271.45z"/>
		<g>
			<polygon class="st15" points="738.64,2190.2 751.13,2190.2 840.7,1816.49 813.22,1816.49 			"/>
			<polygon class="st15" points="1112.81,2190.2 1100.32,2190.2 997.54,1803.28 1025.02,1803.28 			"/>
			<g>
				<path class="st15" d="M877.79,1830.49c-50.04,0-81.74-8.99-101.97-28.69c-25.08-24.43-30.27-62.27-30.34-111.57
					c-0.16-103.65-5.89-125.08-35.07-188.37c-3.24-7.02-0.17-15.34,6.85-18.58c7.02-3.24,15.34-0.17,18.58,6.85
					c30.84,66.9,37.48,91.49,37.64,200.05c0.08,49.97,6.41,76.49,21.88,91.56c15.86,15.45,44.54,21.82,92.98,20.62
					c46.77-1.15,78.96-7.7,104.83-12.96c34.02-6.92,58.61-11.91,87.76,2.02c6.98,3.33,9.93,11.69,6.6,18.67
					c-3.33,6.98-11.69,9.93-18.67,6.6c-20.69-9.89-38.24-6.32-70.11,0.16c-26.95,5.48-60.48,12.29-109.72,13.51
					C885.19,1830.45,881.43,1830.49,877.79,1830.49z"/>
			</g>
		</g>
		<g>
			<path class="st6" d="M1495.92,1574H1293c-7.73,0-14-6.27-14-14s6.27-14,14-14h193.98l78.24-168.38
				c3.26-7.01,11.58-10.05,18.6-6.8c7.01,3.26,10.05,11.58,6.8,18.6l-82,176.48C1506.32,1570.84,1501.36,1574,1495.92,1574z"/>
		</g>
		<path class="st9" d="M807.34,1412.11c0,0,35.65,108.74,79.77,153.75c44.12,45.01,132.91,60.13,160.71,58.36
			c-22.16-8.91-64.37-34.26-81.34-101.45c-11.94-47.25-6.51-72.9-33.72-147.76c-20.2-55.57-82.43-85.71-113.17-97.55
			c38.36,27.55,86.33,72.93,101.07,107.46C937.02,1423.26,807.34,1412.11,807.34,1412.11z"/>
		<path class="st20" d="M1299.42,1507.54c0,0,61.5-28.07,68.18-25.4s74.87,43.84,74.87,50.66c0,6.82-60.16-25.42-60.16-25.42
			s6.68,17.82,2.67,26.37s-50.26,8.55-91.97,5.87S1299.42,1507.54,1299.42,1507.54z"/>
		<path class="st8" d="M809.31,1328.1c-56.69,116.19,137.77,233.97,253.13,244.44c115.37,10.47,252.43-27.28,252.43-27.28
			l-15.45-37.72c0,0-231.12-30.17-236.98-34.39C1056.59,1468.93,830.07,1285.55,809.31,1328.1z"/>
		<path class="st20" d="M883.01,1141.68c5.25,13.82,1.4,28.1-8.6,31.91c-10.01,3.81-22.38-4.31-27.63-18.13
			c-5.25-13.82-1.4-28.1,8.61-31.91C865.39,1119.75,877.76,1127.86,883.01,1141.68z"/>
		<path class="st4" d="M989.99,1053.22c15.66-6.54,33.3-13.54,27.84,13.07c-2.38,11.59,0,8.32,4.16,19.01
			c4.16,10.7-10.48,19.09-15.24,25.04c-4.75,5.94,6.92,12.4-2.59,19.53c-9.51,7.13-22.04-2.64-30.9,0
			c-26.44,7.89-23.17-12.91-38.03-17.23c-14.86-4.33-22.14-3.66-24.96,5.85c-2.82,9.51,10.4,40.79-0.89,37.82
			c-11.29-2.97-13.83,22.28-16.87,36.54s-10.78-9.84-10.28-26.16c0.77-25.02-5.44-35.53-14.66-42.53
			c-9.22-7-13.14-70.65,31.42-73.03c44.56-2.38,44.85-6.68,63.86-10.7C981.89,1036.42,982.85,1056.2,989.99,1053.22z"/>
	</g>
	<g>
		<path class="st22" d="M3488.49,1780.1c28.42,25.94,16.06,51.89-4.94,100.07c-21,48.18-24.71,226.09-24.71,226.09l17.3-2.47
			c0,0-2.47-182.85,21-232.26c23.47-49.42,33.36-74.13,54.36-58.07C3572.5,1829.52,3488.49,1780.1,3488.49,1780.1z"/>
		<path class="st23" d="M3472.88,1746.51c3.45-15.38,23.95-32.01,51.35-46.12c-4.07,22.68-17.14,59.76-3.62,67.36
			c18.23,10.26,1.78-41.51,8.81-69.97c25.73-12.57,56.69-22.84,85.2-27.95c-0.04,0.11-0.07,0.21-0.12,0.31
			c-16.06,40.77-37.06,56.83-28.41,63.01c6.51,4.65,27.7-42.45,55.68-66.59c21-1.12,38.77,1.73,49.29,10.05
			c16.25,12.86,27.15,24.28,10.81,63.45c-9.34,6.67-21.43,11.45-35.48,12.86c-37.06,3.71-54.36,4.94-28.42,17.3
			c12.71,6.05,34-0.34,51.27-4.24c-5.6,10.32-12.49,22-20.85,35.31c-5.31,8.44-11.15,15.76-17.36,22.1
			c-11.95,2.29-22.36,2.31-27.87-0.05c-17.3-7.41-61.77-30.89-72.89-21c-10.88,9.67,82.37,15.8,75.91,40.38
			c-45.2,26.04-96.92,13.65-106.06-10.26C3507.82,1800.35,3462.49,1792.79,3472.88,1746.51z"/>
		<path class="st22" d="M3566.32,1922.18c-49.42-37.06-100.07-2.47-126.02,37.06c-25.94,39.53-7.41,128.49-7.41,128.49
			s9.88,0,9.88-3.71c0-3.71-27.18-105.01,37.06-150.72c40.19-28.6,69.18-14.83,72.89-1.24s-16.06,38.3-16.06,38.3L3566.32,1922.18z"
			/>
		<path class="st23" d="M3452.66,1845.99c49.42,0,65.48,76.6,51.89,121.07c-13.59,44.48-32.12,127.25-32.12,127.25l-12.35-12.35
			c0,0,46.95-116.13,35.83-168.02c-11.12-51.89-38.3-60.54-43.24-60.54C3447.72,1853.4,3452.66,1845.99,3452.66,1845.99z"/>
		<path class="st22" d="M3494.11,1967.41c3.48-4.6,7.77-8.41,13.01-10.93c-0.69,3.68-1.54,7.23-2.57,10.59
			c-6.19,20.26-13.41,48.48-19.43,73.19c-0.55-3.17-1.39-8.04-2.69-15.57c-0.31-1.78-0.55-3.71-0.72-5.75
			C3486.54,2002.48,3491.12,1984.54,3494.11,1967.41z"/>
		<path class="st23" d="M3507.62,1967.78c93.89-39.53,44.43-93.79,127.2-57.96c5.83,2.52,12.94,8.89,20.05,17.66
			c-7.37,2.09-16.3,3.59-26.23,2.1c-24.71-3.71-16.06,16.06,24.71,21c7.68,0.93,13.92,2.21,19.1,4.03
			c19.42,37.3,28.18,86.39-12.93,103.45c-8.1,3.36-18.11,5.29-29.25,6c-12.68-10.08,3.09-68.41-16.46-60.36
			c-18.77,7.73,5.88,50.01,2.5,60.66c-18.53-0.34-39.05-3.36-58.65-8.22c-7.76-4.35-13.68-10.18-15.51-17.84
			c-6.18-25.94,34.59-42,35.83-64.24c1.14-20.44-14.94,44.98-57.54,54.6C3481.93,2010.68,3463.73,1986.26,3507.62,1967.78z"/>
		<path class="st23" d="M3440.71,1897.88c9.88-21-16.06-25.94-14.83-9.88c1.1,14.23,1.22,48.83-13.38,58.24
			c-25.17-2.73-59.42-12.87-85.31-28.33c-0.33-2.09-0.01-4.24,1.09-6.44c11.12-22.24,82.78-40.77,60.54-48.18
			c-17.71-5.9-48.74,28.94-73.75,46.5c-15.02-11.4-25.08-24.98-25.08-40.14c0-20.52,24.94-43.76,57.19-54.86
			c14.51,1.46,28,9.4,49.06,21.33c31.11,17.63,23.92-10.87-5.5-27.79c25.39,1.31,50.71,12.16,69.38,38.08c0,0-1.77,11.08,9.96,28.22
			c31.99,46.75-4.93,74.05-49.06,72.27C3423.52,1934.57,3433.89,1912.39,3440.71,1897.88z"/>
		<path class="st22" d="M3563.35,1920.08c24.16,18.67,51,40.5,83.95,55.32c32.95,14.83,26.36,63.15,26.36,63.15
			s4.94-41.73-22.51-56.01c-27.46-14.28-45.58-31.3-66.44-34.59c-20.87-3.29-32.4-6.59-32.4-6.59s6.59-13.18,2.75-18.12
			C3551.2,1918.3,3563.35,1920.08,3563.35,1920.08z"/>
		<path class="st22" d="M3682.43,1700.85c-88.41,23.61-153.2,80.17-165.28,93.9c-12.08,13.73-12.08,17.57-12.08,17.57l9.33,17.57
			l4.39-2.2c0,0-7.14-14.83,11.53-34.04c32.2-33.14,71.38-59.3,98.29-70.83S3682.43,1700.85,3682.43,1700.85z"/>
		<path class="st14" d="M3438.4,2190.2h33.78c24.02,0,43.49-19.47,43.49-43.49v-77.6h-120.75v77.6
			C3394.91,2170.73,3414.38,2190.2,3438.4,2190.2z"/>
		<rect x="3394.91" y="2082.98" class="st3" width="120.75" height="8.5"/>
		<rect x="3394.91" y="2098.48" class="st3" width="120.75" height="5"/>
	</g>
	<g>
		<g>
			<path class="st11" d="M2005.9,448.56c0-91.51-73.6-165.84-164.84-167c-91.66-1.17-167.72,72.64-169.18,164.29
				c-0.71,44.74,16.18,85.53,44.18,115.9c12.9,13.99,20.07,32.33,20.07,51.36v74.87c0,48.44,39.63,88.07,88.06,88.07h29.36
				c48.44,0,88.07-39.63,88.07-88.07v-74.86c0-19.19,7.4-37.56,20.37-51.7C1989.26,531.69,2005.9,492.07,2005.9,448.56z"/>
			<path class="st24" d="M1982.57,459.77c0-78.73-63.32-142.67-141.81-143.67c-78.85-1.01-144.29,62.49-145.54,141.34
				c-0.61,38.49,13.92,73.58,38.01,99.71c11.1,12.04,17.26,27.81,17.26,44.19v64.41c0,41.67,34.09,75.76,75.76,75.76h25.26
				c41.67,0,75.76-34.09,75.76-75.76v-64.4c0-16.51,6.37-32.31,17.53-44.48C1968.25,531.29,1982.57,497.2,1982.57,459.77z"/>
			<g>
				<path class="st25" d="M1863.57,643.13h-55c-2.58,0-4.74-1.97-4.98-4.54c-0.1-1.07-10.36-107.24-57.84-136.98
					c-2.34-1.47-3.05-4.55-1.58-6.89c1.46-2.34,4.55-3.05,6.89-1.58c46.31,29,59.47,118.47,62.01,140h45.22
					c-0.18-7.39,0.25-21.64,4.5-40.09c5.69-24.66,19.64-61.86,53.79-99.05c1.87-2.03,5.03-2.17,7.07-0.3
					c2.03,1.87,2.17,5.03,0.3,7.06c-62.42,67.96-55.48,136.13-55.4,136.81c0.16,1.42-0.29,2.83-1.24,3.89
					C1866.35,642.53,1864.99,643.13,1863.57,643.13z"/>
			</g>
			<g>
				<path class="st25" d="M1904.74,508.45c-18.57,0-43.88-13.19-70.55-27.49c-34.44,18.34-66.6,34.79-84.6,23.87
					c-8.46-5.13-12.51-15.17-12.37-30.69c0.13-14.61,4.32-24.46,12.45-29.28c18.04-10.68,50.26,6.36,84.53,24.75
					c34.95-18.64,67.85-35.99,85.82-25.05c8.07,4.91,12.06,14.9,11.88,29.68c-0.2,15.38-4.62,25.73-13.14,30.75
					C1914.71,507.4,1909.99,508.45,1904.74,508.45z M1844.82,475.3c27.46,14.59,56.18,28.57,68.87,21.09
					c5.31-3.13,8.07-10.62,8.22-22.27c0.14-11-2.24-18.07-7.08-21.01C1902.57,445.65,1872.8,460.46,1844.82,475.3z M1763.19,451.52
					c-3.3,0-6.14,0.6-8.42,1.95c-4.91,2.91-7.45,9.89-7.55,20.76c-0.1,11.53,2.44,18.95,7.55,22.05
					c12.34,7.48,41.16-6.42,68.8-21.01C1801.23,463.35,1777.77,451.52,1763.19,451.52z"/>
			</g>
			<path class="st25" d="M1856.57,799.8h-32c-11.27,0-20.5-9.23-20.5-20.5v-3c0-11.27,9.23-20.5,20.5-20.5h32
				c11.27,0,20.5,9.23,20.5,20.5v3C1877.07,790.58,1867.84,799.8,1856.57,799.8z"/>
			<path class="st25" d="M1731.28,634.13v52.96c0,50.72,41.5,92.23,92.23,92.23h30.75c50.72,0,92.23-41.5,92.23-92.23v-52.96
				H1731.28z"/>
			<path class="st26" d="M1945.57,650.8H1734.9c-6.6,0-12-5.4-12-12v-1.33c0-6.6,5.4-12,12-12h210.67c6.6,0,12,5.4,12,12v1.33
				C1957.57,645.4,1952.17,650.8,1945.57,650.8z"/>
			<path class="st26" d="M1946.32,669.79l-209.08,25.83c-6.55,0.81-12.57-3.89-13.38-10.44l-0.16-1.32
				c-0.81-6.55,3.89-12.57,10.44-13.38l209.08-25.83c6.55-0.81,12.57,3.89,13.38,10.44l0.16,1.32
				C1957.57,662.96,1952.87,668.98,1946.32,669.79z"/>
			<path class="st26" d="M1946.32,706.38l-209.08,25.83c-6.55,0.81-12.57-3.89-13.38-10.44l-0.16-1.32
				c-0.81-6.55,3.89-12.57,10.44-13.38l209.08-25.83c6.55-0.81,12.57,3.89,13.38,10.44l0.16,1.32
				C1957.57,699.55,1952.87,705.58,1946.32,706.38z"/>
			<path class="st26" d="M1933.42,745.54l-174.13,21.51c-6.01,0.74-11.54-3.57-12.28-9.58l-0.41-3.28
				c-0.74-6.01,3.57-11.54,9.58-12.28l174.13-21.51c6.01-0.74,11.54,3.57,12.28,9.58l0.41,3.28
				C1943.74,739.27,1939.43,744.8,1933.42,745.54z"/>
		</g>
		<g>
			<path class="st26" d="M3441.06,793.02h112.24c0,61.57-50.67,112.24-112.24,112.24s-112.24-50.67-112.24-112.24
				c0-61.57,50.67-112.24,112.24-112.24V793.02z"/>
			<g>
				<path class="st27" d="M3572.1,777.3c0-61.99-50.25-112.24-112.24-112.24V777.3H3572.1z"/>
				<path class="st27" d="M3347.62,777.3c0,61.99,50.25,112.24,112.24,112.24C3398.29,889.54,3347.62,838.87,3347.62,777.3z"/>
				<path class="st27" d="M3459.86,665.06c-61.99,0-112.24,50.25-112.24,112.24C3347.62,715.73,3398.29,665.06,3459.86,665.06z"/>
				<path class="st27" d="M3459.86,889.54c61.99,0,112.24-50.25,112.24-112.24C3572.1,838.87,3521.43,889.54,3459.86,889.54z"/>
			</g>
		</g>
		<g>
			<rect x="1244.45" y="718.77" class="st26" width="24.51" height="70.93"/>
			<rect x="1558.64" y="741.85" class="st26" width="24.51" height="47.85"/>
			<rect x="1348.33" y="623.75" class="st26" width="24.51" height="165.95"/>
			<rect x="1400.28" y="715.11" class="st26" width="24.51" height="74.59"/>
			<rect x="1452.22" y="694" class="st26" width="24.51" height="95.71"/>
			<rect x="1296.39" y="671.94" class="st26" width="24.51" height="117.76"/>
			<rect x="1504.34" y="644.66" class="st26" width="24.51" height="145.04"/>
		</g>
		<g>
			<defs>
				<path id="SVGID_1_" d="M462.56,363.19c-78.56,0-142.24,63.68-142.24,142.24s63.68,142.24,142.24,142.24
					S604.8,583.98,604.8,505.42S541.12,363.19,462.56,363.19z M462.56,580.77c-41.61,0-75.35-33.73-75.35-75.35
					s33.73-75.35,75.35-75.35c41.61,0,75.35,33.73,75.35,75.35S504.18,580.77,462.56,580.77z"/>
			</defs>
			<clipPath id="SVGID_00000146491735099493361350000014759632808416313017_">
				<use xlink:href="#SVGID_1_"  style="overflow:visible;"/>
			</clipPath>
			<path style="clip-path:url(#SVGID_00000146491735099493361350000014759632808416313017_);fill:#A2DFF2;" d="M591.12,584.04
				l-128.55-78.61l-23.25,148.88C499.7,663.83,559.6,635.53,591.12,584.04z"/>
			<path style="clip-path:url(#SVGID_00000146491735099493361350000014759632808416313017_);fill:#9CD499;" d="M591.25,583.86
				c0.35-0.57,0.8-1.35,0.78-1.32c27.15-45.48,28.25-101.97,3.34-148.34c-45.49,23.83-18.4,9.35-132.81,71.22
				C591.33,584.17,571.33,572.02,591.25,583.86z"/>
			<path style="clip-path:url(#SVGID_00000146491735099493361350000014759632808416313017_);fill:#9EC8FF;" d="M321.25,453.35
				l141.32,52.07l132.57-71.68C533.12,319.07,366.21,332.82,321.25,453.35z"/>
			<path style="clip-path:url(#SVGID_00000146491735099493361350000014759632808416313017_);fill:#F39892;" d="M439.31,654.31
				l23.25-148.88l-141.32-52.07C287.64,543.44,347.29,639.8,439.31,654.31z"/>
			<path style="clip-path:url(#SVGID_00000146491735099493361350000014759632808416313017_);fill:#FFFFFF;" d="M312,478
				c2.63,0,5.05,0.67,7.14,1.85c1.22-6.75,2.92-13.45,5.13-20.05l76.73,28.27c0-0.02-0.01-0.05-0.01-0.07
				c-0.16-3.5,1.16-6.77,3.33-9.36l-7.68-2.83l-68.89-25.38c5.65-13.76,13.17-26.27,22.19-37.33c-3.25-1.19-5.91-3.49-7.66-6.43
				c-9.74,11.92-17.85,25.44-23.91,40.3l-0.08-0.03l-1.74,4.67l-1.75,4.7l0.08,0.03c-2.43,7.22-4.29,14.55-5.62,21.94
				C310.17,478.1,311.08,478,312,478z"/>
			<path style="clip-path:url(#SVGID_00000146491735099493361350000014759632808416313017_);fill:#E7F3FE;" d="M601.82,435.81
				l0.08-0.04l-2.38-4.4c-0.05-0.09-0.1-0.18-0.15-0.26l-1.94-3.62l-0.07,0.04c-15-26.06-36.39-46.85-62.11-60.25
				c-25.19-13.12-53.83-19-82.83-16.98c-34.1,2.37-65.17,15.15-89.84,35.83c2.9,1.76,5.12,4.5,6.35,7.74
				c23.11-19.39,52.22-31.38,84.18-33.6c55.77-3.88,107.11,23.42,135.18,71.5l-39.15,21.17c-8.08,4.35-19.38,10.46-38.3,20.7
				c-12.12,6.56-27.37,14.81-46.9,25.37l-1.21,0.65l-3.94-2.41l-0.21,1.37l-27.57-10.16c0.03,3.51-1.4,6.76-3.69,9.3l29.68,10.94
				l-21.84,139.8c-41.24-7.96-76.92-33.32-98.45-70.18c-12.87-22.03-19.54-46.54-19.84-71.22c-1.56,0.56-3.2,0.89-4.86,0.89
				c-1.83,0-3.55-0.34-5.14-0.94c0.29,26.45,7.42,52.71,21.21,76.31c23.05,39.46,61.32,66.58,105.54,75.01l-0.01,0.09l4.93,0.78
				c0.01,0,4.95,0.78,4.95,0.78l0.01-0.09c6.4,0.8,12.8,1.2,19.2,1.2c22.48,0,44.75-4.92,65.46-14.56
				c26.51-12.34,48.79-31.64,64.7-55.96l0.1,0.06l0.98-1.6c0.02,0.01,1.59-2.61,1.59-2.61c0.24-0.4,0.54-0.9,0.7-1.18l0.11-0.18
				c0.03-0.04,0.05-0.09,0.08-0.14l1.59-2.59l-0.07-0.04C623.47,537.43,624.92,481.98,601.82,435.81z M445.03,650.06l21.31-136.46
				l55.47,33.92c22.36,13.68,35.15,21.5,43.21,26.42l19.15,11.71C553.63,631.97,499.96,656.82,445.03,650.06z M589.48,576.99
				c0,0-0.95-0.56-0.95-0.56c-5.25-3.11-7.53-4.46-18-10.85l-97.94-59.89l81.3-43.96c11.94-6.42,16.83-8.98,28.96-15.32
				c2.96-1.55,6.35-3.32,10.39-5.43C614.42,483.9,613.04,535.27,589.48,576.99z"/>
		</g>
		<g>
			<path class="st26" d="M1286.93,532.98H872.37c-4.51,0-8.17-3.66-8.17-8.17V346.41c0-4.51,3.66-8.17,8.17-8.17h414.56
				c4.51,0,8.17,3.66,8.17,8.17v178.39C1295.1,529.32,1291.44,532.98,1286.93,532.98z"/>
			<path class="st3" d="M1276.72,523.84H882.58c-3.65,0-6.6-2.95-6.6-6.6V396.01c0-3.65,2.96-6.6,6.6-6.6h394.14
				c3.65,0,6.6,2.95,6.6,6.6v121.23C1283.32,520.88,1280.36,523.84,1276.72,523.84z"/>
			<g>
				<path class="st3" d="M895.18,367.77h-9.57c-2.02,0-3.66-1.64-3.66-3.66v-7.88c0-2.02,1.64-3.66,3.66-3.66h9.57
					c2.02,0,3.66,1.64,3.66,3.66v7.88C898.84,366.13,897.2,367.77,895.18,367.77z"/>
				<path class="st3" d="M925.88,367.77h-9.57c-2.02,0-3.66-1.64-3.66-3.66v-7.88c0-2.02,1.64-3.66,3.66-3.66h9.57
					c2.02,0,3.66,1.64,3.66,3.66v7.88C929.53,366.13,927.9,367.77,925.88,367.77z"/>
				<path class="st3" d="M956.57,367.77H947c-2.02,0-3.66-1.64-3.66-3.66v-7.88c0-2.02,1.64-3.66,3.66-3.66h9.57
					c2.02,0,3.66,1.64,3.66,3.66v7.88C960.23,366.13,958.59,367.77,956.57,367.77z"/>
			</g>
			<path class="st26" d="M1266.74,418.87h-215.46c-3.54,0-6.45-2.9-6.45-6.45c0-3.54,2.9-6.45,6.45-6.45h215.46
				c3.54,0,6.45,2.9,6.45,6.45C1273.19,415.97,1270.29,418.87,1266.74,418.87z"/>
			<path class="st26" d="M1104.69,518.31H889.23c-3.55,0-6.45-2.9-6.45-6.45c0-3.54,2.9-6.45,6.45-6.45h215.46
				c3.54,0,6.45,2.9,6.45,6.45C1111.13,515.41,1108.23,518.31,1104.69,518.31z"/>
			<path class="st26" d="M1144.38,518.31h-22.29c-1.21,0-2.2-0.99-2.2-2.2v-8.48c0-1.21,0.99-2.2,2.2-2.2h22.29
				c1.21,0,2.2,0.99,2.2,2.2v8.48C1146.58,517.32,1145.59,518.31,1144.38,518.31z"/>
			<path class="st26" d="M1177.99,518.31h-22.29c-1.21,0-2.2-0.99-2.2-2.2v-8.48c0-1.21,0.99-2.2,2.2-2.2h22.29
				c1.21,0,2.2,0.99,2.2,2.2v8.48C1180.19,517.32,1179.2,518.31,1177.99,518.31z"/>
			<path class="st26" d="M1268.82,446.95h-356.8c-2.41,0-4.37-1.97-4.37-4.37c0-2.41,1.97-4.37,4.37-4.37h356.8
				c2.41,0,4.37,1.97,4.37,4.37C1273.19,444.99,1271.22,446.95,1268.82,446.95z"/>
			<path class="st26" d="M1268.82,465.83h-356.8c-2.41,0-4.37-1.97-4.37-4.37c0-2.41,1.97-4.37,4.37-4.37h356.8
				c2.41,0,4.37,1.97,4.37,4.37C1273.19,463.86,1271.22,465.83,1268.82,465.83z"/>
		</g>
		<g>
			<path class="st34" d="M2345.23,408.98h-184V301.74h138.38c17.82,17.82,27.81,27.81,45.62,45.62V408.98z"/>
			<polygon class="st27" points="2296.23,301.74 2296.23,358.98 2345.23,358.98 2345.23,347.98 2299.3,302.05 			"/>
			<polygon class="st34" points="2299.61,301.74 2299.61,347.98 2345.23,347.98 			"/>
			<path class="st3" d="M2263.98,341.98h-82c-1.79,0-3.25-1.46-3.25-3.25c0-1.79,1.46-3.25,3.25-3.25h82c1.79,0,3.25,1.46,3.25,3.25
				C2267.23,340.52,2265.77,341.98,2263.98,341.98z"/>
			<path class="st3" d="M2263.98,358.61h-82c-1.79,0-3.25-1.46-3.25-3.25c0-1.79,1.46-3.25,3.25-3.25h82c1.79,0,3.25,1.46,3.25,3.25
				C2267.23,357.14,2265.77,358.61,2263.98,358.61z"/>
			<path class="st3" d="M2263.98,376.11h-82c-1.79,0-3.25-1.46-3.25-3.25c0-1.79,1.46-3.25,3.25-3.25h82c1.79,0,3.25,1.46,3.25,3.25
				C2267.23,374.64,2265.77,376.11,2263.98,376.11z"/>
		</g>
		<circle class="st6" cx="2247.73" cy="309.98" r="5.5"/>
		
			<rect x="1424.79" y="294.61" transform="matrix(0.9818 0.1897 -0.1897 0.9818 96.1951 -274.7471)" class="st35" width="116.94" height="141"/>
		<path class="st26" d="M1529.75,366.83l-60.87-11.76c-1.62-0.31-2.69-1.89-2.38-3.51c0.31-1.62,1.89-2.69,3.51-2.38l60.87,11.76
			c1.62,0.31,2.69,1.89,2.38,3.51C1532.95,366.07,1531.37,367.14,1529.75,366.83z"/>
		<path class="st26" d="M1526.81,382.05l-60.87-11.76c-1.62-0.31-2.69-1.89-2.38-3.51c0.31-1.62,1.89-2.69,3.51-2.38l60.87,11.76
			c1.62,0.31,2.69,1.89,2.38,3.51C1530.01,381.29,1528.43,382.36,1526.81,382.05z"/>
		<path class="st26" d="M1523.79,397.69l-60.87-11.76c-1.62-0.31-2.69-1.89-2.38-3.51c0.31-1.62,1.9-2.69,3.51-2.38l60.87,11.76
			c1.62,0.31,2.69,1.89,2.38,3.51C1526.99,396.93,1525.41,398,1523.79,397.69z"/>
		<path class="st6" d="M1488.54,303.36c-0.52,2.71-3.15,4.48-5.86,3.96c-2.71-0.52-4.48-3.15-3.96-5.86
			c0.52-2.71,3.15-4.48,5.86-3.96C1487.29,298.03,1489.07,300.65,1488.54,303.36z"/>
		<path class="st26" d="M2430.15,559.03l-177.7-18.72l11.73-111.38l140.89,14.84c12.86,15.89,20.07,24.79,32.93,40.68
			L2430.15,559.03z"/>
		<polygon class="st3" points="2402.56,451.72 2270.29,437.78 2260.4,531.76 2424.83,549.09 2430.63,494.06 2398.46,490.67 		"/>
		<path class="st26" d="M2384.63,485.86l-85.68-9.03c-1.96-0.21-3.4-1.98-3.19-3.95c0.21-1.96,1.98-3.4,3.95-3.19l85.68,9.03
			c1.96,0.21,3.4,1.98,3.19,3.95C2388.37,484.63,2386.6,486.07,2384.63,485.86z"/>
		<path class="st26" d="M2382.64,504.74l-85.68-9.03c-1.96-0.21-3.4-1.98-3.19-3.95c0.21-1.96,1.98-3.4,3.95-3.19l85.68,9.03
			c1.96,0.21,3.4,1.98,3.19,3.95C2386.38,503.51,2384.61,504.95,2382.64,504.74z"/>
		<path class="st26" d="M2380.57,524.46l-85.68-9.03c-1.96-0.21-3.4-1.98-3.19-3.95c0.21-1.96,1.98-3.4,3.95-3.19l85.68,9.03
			c1.96,0.21,3.4,1.98,3.19,3.95S2382.53,524.66,2380.57,524.46z"/>
		<circle class="st6" cx="2330.68" cy="454.65" r="5.5"/>
		<g>
			<path class="st23" d="M3313.06,367.77c0,33.88-27.47,61.35-61.35,61.35c-33.88,0-61.35-27.47-61.35-61.35
				c0-33.88,27.47-61.35,61.35-61.35C3285.59,306.42,3313.06,333.89,3313.06,367.77z"/>
			<g>
				<path class="st3" d="M3245.62,388.77c-0.04,0-0.07,0-0.11,0c-0.82-0.03-1.6-0.4-2.14-1.02l-16.66-18.94
					c-1.09-1.24-0.97-3.14,0.27-4.23c1.24-1.09,3.14-0.97,4.23,0.27l14.57,16.56l33.34-32.63c1.18-1.16,3.08-1.14,4.24,0.05
					c1.16,1.18,1.14,3.08-0.04,4.24l-35.6,34.84C3247.16,388.46,3246.4,388.77,3245.62,388.77z"/>
			</g>
		</g>
		<g>
			<path class="st26" d="M487.52,937.27h353.7c9.07,0,16.48-7.42,16.48-16.48V794.41c0-9.07-7.42-16.48-16.48-16.48h-353.7
				c-9.07,0-16.48,7.42-16.48,16.48v126.37C471.04,929.85,478.46,937.27,487.52,937.27z"/>
			<path class="st26" d="M811,913.23v87.91l-101.3-101.3C709.7,899.84,808.94,913.23,811,913.23z"/>
			<path class="st3" d="M505.01,921.47h318.72c7.69,0,13.97-6.29,13.97-13.97v-99.8c0-7.69-6.29-13.97-13.97-13.97H505.01
				c-7.69,0-13.97,6.29-13.97,13.97v99.8C491.04,915.18,497.33,921.47,505.01,921.47z"/>
			<path class="st26" d="M648.92,825.32h156.59c3.78,0,6.87-3.09,6.87-6.87c0-3.78-3.09-6.87-6.87-6.87H648.92
				c-3.78,0-6.87,3.09-6.87,6.87C642.05,822.23,645.14,825.32,648.92,825.32z"/>
			<path class="st26" d="M518.12,851.58h290.43c2.1,0,3.82-1.72,3.82-3.82v-0.08c0-2.1-1.72-3.82-3.82-3.82H518.12
				c-2.1,0-3.82,1.72-3.82,3.82v0.08C514.31,849.86,516.02,851.58,518.12,851.58z"/>
			<path class="st26" d="M518.12,866.53h290.43c2.1,0,3.82-1.72,3.82-3.82v-0.08c0-2.1-1.72-3.82-3.82-3.82H518.12
				c-2.1,0-3.82,1.72-3.82,3.82v0.08C514.31,864.81,516.02,866.53,518.12,866.53z"/>
		</g>
		<g>
			<path class="st26" d="M3103.49,825.94h18.54c3.92,0,7.09-3.17,7.09-7.09v-15.27c0-3.91-3.17-7.09-7.09-7.09h-18.54
				c-3.92,0-7.09,3.17-7.09,7.09v15.27C3096.41,822.77,3099.58,825.94,3103.49,825.94z"/>
			<path class="st26" d="M3044.01,825.94h18.54c3.92,0,7.09-3.17,7.09-7.09v-15.27c0-3.91-3.17-7.09-7.09-7.09h-18.54
				c-3.92,0-7.09,3.17-7.09,7.09v15.27C3036.93,822.77,3040.1,825.94,3044.01,825.94z"/>
			<path class="st26" d="M2984.53,825.94h18.54c3.92,0,7.09-3.17,7.09-7.09v-15.27c0-3.91-3.17-7.09-7.09-7.09h-18.54
				c-3.91,0-7.09,3.17-7.09,7.09v15.27C2977.45,822.77,2980.62,825.94,2984.53,825.94z"/>
		</g>
	</g>
</g>
</svg>
