<?xml version="1.0" encoding="UTF-8"?>
<svg width="178px" height="76px" viewBox="0 0 178 76" version="1.1" xmlns="http://www.w3.org/2000/svg" xmlns:xlink="http://www.w3.org/1999/xlink">
    <title>Artboard</title>
    <g id="Artboard" stroke="none" stroke-width="1" fill="none" fill-rule="evenodd">
        <g id="Envision">
            <g id="Group" transform="translate(9.000000, 3.000000)">
                <g>
                    <path d="M117,10.9 C115.2,10.9 113.7,11.6 112.5,12.9 C111.2,14.2 110.6,15.8 110.6,17.6 C110.6,19.4 111.2,21 112.5,22.3 C113.8,23.6 115.3,24.3 117,24.3 C118.8,24.3 120.3,23.7 121.5,22.4 C122.7,21.1 123.4,19.5 123.4,17.7 C123.4,15.8 122.8,14.3 121.5,13 C120.3,11.6 118.8,10.9 117,10.9 M117.3,2.4 C121.4,2.4 125,3.9 127.9,6.9 C130.8,9.9 132.3,13.5 132.3,17.6 C132.3,21.8 130.8,25.4 127.8,28.4 C124.8,31.4 121.2,32.8 117,32.8 C112.8,32.8 109.2,31.3 106.2,28.3 C103.2,25.3 101.7,21.7 101.7,17.5 C101.7,13.3 103.2,9.7 106.2,6.7 C109.3,3.9 112.9,2.4 117.3,2.4 Z" id="Shape" fill="#000000" fill-rule="nonzero"></path>
                    <path d="M117.6,6.9 C117.8,6.7 118.3,6.7 118.5,6.7 C120.5,6.6 122.5,7.4 124.2,8.5 C125.7,9.6 126.9,11.1 127.5,12.9 C127.7,13.7 127.9,14.5 127.8,15.4 C127.8,15.6 127.7,15.7 127.7,15.8 C127.3,16.5 126.8,15.5 126.6,15.2 C126.5,15 126.4,14.8 126.2,14.5 C125.7,13.5 125.1,12.6 124.4,11.7 C124.1,11.4 123.8,11 123.5,10.7 C123.2,10.4 122.8,10.1 122.5,9.8 C121.5,9.1 120.5,8.5 119.4,8 C119.1,7.9 118.8,7.8 118.6,7.7 C118.4,7.5 117.4,7.1 117.6,6.9" id="Path" fill="#FFFFFF"></path>
                    <path d="M133.5,32.1 L133.5,13.3 C133.5,10 134.5,7.4 136.5,5.4 C138.5,3.4 141.1,2.4 144.4,2.4 C147.7,2.4 150.2,3.4 151.9,5.3 C153.6,7.2 154.5,10 154.5,13.6 L154.5,32.1 L145.9,32.1 L145.9,13.6 C145.9,11.8 145.3,11 144,11 C142.8,11 142.2,11.9 142.2,13.6 L142.2,32.1 L133.5,32.1 Z M99.9,32.1 L91.3,32.1 L91.3,3.1 L99.9,3.1 L99.9,32.1 Z M89.2,3 L89.2,11.2 C88.6,11 88.1,10.9 87.8,10.9 C87.1,10.9 86.6,11.1 86.1,11.6 C85.6,12.1 85.4,12.7 85.4,13.3 C85.4,13.9 85.7,14.6 86.2,15.5 L86.9,16.6 C88.1,18.7 88.7,20.7 88.7,22.6 C88.7,25.4 87.7,27.8 85.7,29.7 C83.7,31.6 81.2,32.6 78.3,32.6 C76.9,32.6 75.5,32.3 74.2,31.6 L74.2,23.2 C75,23.7 75.8,24 76.4,24 C77.2,24 77.8,23.8 78.3,23.4 C78.8,23 79.1,22.4 79.1,21.8 C79.1,21.4 78.7,20.5 77.9,19 C76.6,16.7 76,14.5 76,12.2 C76,9.5 77,7.1 78.9,5.2 C80.9,3.2 83.2,2.2 85.9,2.2 C86.9,2.4 88,2.6 89.2,3 Z M72,32.1 L63.4,32.1 L63.4,3.1 L72,3.1 L72,32.1 Z M63.7,3.1 L51,33.7 L38.4,3.1 L48.4,3.1 L51.1,12.1 L54,3.1 L63.7,3.1 Z M18.8,32.1 L18.8,13.3 C18.8,10 19.8,7.4 21.8,5.4 C23.8,3.4 26.4,2.4 29.7,2.4 C33,2.4 35.5,3.4 37.2,5.3 C38.9,7.2 39.8,10 39.8,13.6 L39.8,32.1 L31.1,32.1 L31.1,13.6 C31.1,11.8 30.5,11 29.2,11 C28,11 27.4,11.9 27.4,13.6 L27.4,32.1 L18.8,32.1 Z M16.1,14.4 L16.1,20.8 L10.4,20.8 C9.6,20.8 9.1,20.9 8.8,21.1 C8.5,21.3 8.3,21.7 8.3,22.2 C8.3,22.8 8.5,23.2 8.8,23.4 C9.1,23.6 9.8,23.7 10.8,23.7 L16.6,23.7 L16.6,32 L9.8,32 C6.6,32 4.2,31.2 2.5,29.7 C0.8,28.3 0,26.1 0,23.2 L0,11.9 C0,9.1 0.8,7 2.4,5.5 C4,4 6.2,3.2 9.1,3.2 L16.6,3.2 L16.6,11.5 L11.1,11.5 C9.6,11.5 8.9,12 8.9,12.9 C8.9,13.5 9.1,13.9 9.4,14.1 C9.8,14.3 10.4,14.4 11.3,14.4 L16.1,14.4 Z" id="Shape" fill="#008CCF" fill-rule="nonzero"></path>
                    <path d="M157.1,0 C157.6,0 158.1,0.1 158.5,0.4 C159,0.6 159.3,1 159.6,1.5 C159.9,2 160,2.4 160,2.9 C160,3.4 159.9,3.9 159.6,4.3 C159.3,4.7 159,5.1 158.5,5.4 C158,5.7 157.6,5.8 157.1,5.8 C156.6,5.8 156.1,5.7 155.7,5.4 C155.2,5.1 154.9,4.8 154.6,4.3 C154.3,3.8 154.2,3.4 154.2,2.9 C154.2,2.4 154.3,1.9 154.6,1.5 C154.9,1.1 155.2,0.7 155.7,0.4 C156.2,0.1 156.6,0 157.1,0 Z M157.1,0.5 C156.7,0.5 156.3,0.6 155.9,0.8 C155.5,1 155.2,1.3 155,1.7 C154.8,2.1 154.7,2.5 154.7,2.9 C154.7,3.3 154.8,3.7 155,4.1 C155.2,4.5 155.5,4.8 155.9,5 C156.3,5.2 156.7,5.3 157.1,5.3 C157.5,5.3 157.9,5.2 158.3,5 C158.7,4.8 159,4.5 159.2,4.1 C159.4,3.7 159.5,3.3 159.5,2.9 C159.5,2.5 159.4,2.1 159.2,1.7 C159,1.3 158.7,1 158.3,0.8 C157.9,0.6 157.5,0.5 157.1,0.5 Z M155.9,4.5 L155.9,1.4 L157,1.4 C157.4,1.4 157.6,1.4 157.8,1.5 C158,1.6 158.1,1.7 158.2,1.8 C158.3,1.9 158.3,2.1 158.3,2.3 C158.3,2.5 158.2,2.7 158.1,2.9 C157.9,3.1 157.7,3.2 157.5,3.2 C157.6,3.2 157.7,3.3 157.8,3.4 C157.9,3.5 158.1,3.7 158.3,4 L158.7,4.6 L158.1,4.6 L157.6,4 C157.4,3.6 157.2,3.4 157.1,3.3 C157,3.2 156.9,3.2 156.7,3.2 L156.4,3.2 L156.4,4.5 L155.9,4.5 Z M156.4,2.8 L157,2.8 C157.3,2.8 157.5,2.8 157.6,2.7 C157.7,2.6 157.8,2.5 157.8,2.4 C157.8,2.3 157.8,2.2 157.7,2.2 C157.6,2.1 157.6,2.1 157.5,2 C157.4,2 157.2,1.9 157,1.9 L156.4,1.9 L156.4,2.8 Z" id="Shape" fill="#000000" fill-rule="nonzero"></path>
                </g>
                <g transform="translate(0.900000, 39.100000)" fill="#000000" fill-rule="nonzero">
                    <path d="M4.1,9.6 C4.1,9.8 4,10 3.9,10.1 C3.8,10.2 3.6,10.3 3.4,10.3 L0.7,10.3 C0.5,10.3 0.3,10.2 0.2,10.1 C0.1,10 -3.55271368e-15,9.8 -3.55271368e-15,9.6 L-3.55271368e-15,0.7 C-3.55271368e-15,0.5 0.1,0.3 0.2,0.2 C0.3,0.1 0.5,7.10542736e-15 0.7,7.10542736e-15 L3.4,7.10542736e-15 C3.6,7.10542736e-15 3.8,0.1 3.9,0.2 C4,0.3 4.1,0.5 4.1,0.7 L4.1,3.1 L3.2,3.1 L3.2,0.8 L0.9,0.8 L0.9,9.5 L3.2,9.5 L3.2,7 L4.1,7 L4.1,9.6 Z" id="Path"></path>
                    <path d="M9.4,9.6 C9.4,10.1 9.1,10.3 8.6,10.3 L6.4,10.3 C5.9,10.3 5.7,10.1 5.7,9.6 L5.7,4.7 C5.7,4.2 5.9,4 6.4,4 L8.6,4 C9.1,4 9.4,4.2 9.4,4.7 L9.4,9.6 Z M8.5,9.6 L8.5,4.7 L6.5,4.7 L6.5,9.6 L8.5,9.6 Z" id="Shape"></path>
                    <path d="M17.3,10.4 L16.4,10.4 L16.4,4.8 L14.5,4.9 L14.5,10.5 L13.6,10.5 L13.6,4.9 L11.7,5 L11.7,10.6 L10.8,10.6 L10.8,3.9 L11.7,3.9 L11.7,4.1 C12,4.1 12.4,4 12.7,4 C13.1,3.9 13.5,3.9 13.7,3.9 C14,3.9 14.2,4 14.3,4.1 C14.7,4.1 15,4 15.4,3.9 C15.9,3.8 16.3,3.8 16.5,3.8 C17,3.8 17.2,4 17.2,4.5 L17.2,10.4 L17.3,10.4 Z" id="Path"></path>
                    <path d="M22.5,9 C22.5,9.4 22.4,9.7 22.1,10 C21.8,10.3 21.5,10.4 21.1,10.4 L19.6,10.4 L19.6,12.8 L18.7,12.8 L18.7,3.9 L19.6,3.9 L19.6,4.1 C20,4.1 20.3,4 20.7,4 C21.1,3.9 21.5,3.9 21.7,3.9 C22.2,3.9 22.4,4.1 22.4,4.6 L22.4,9 L22.5,9 Z M21.6,8.8 L21.6,4.7 L19.6,4.8 L19.6,9.6 L20.8,9.6 C21.4,9.6 21.6,9.3 21.6,8.8 Z" id="Shape"></path>
                    <path d="M27.6,10.4 L26.7,10.4 L26.7,10.2 C26.3,10.2 26,10.3 25.6,10.3 C25.2,10.4 24.8,10.4 24.5,10.4 C24,10.4 23.8,10.2 23.8,9.7 L23.8,3.9 L24.7,3.9 L24.7,9.5 L26.7,9.4 L26.7,3.9 L27.6,3.9 L27.6,10.4 L27.6,10.4 Z" id="Path"></path>
                    <path d="M31.4,10.4 L30.1,10.4 C29.6,10.4 29.4,10.2 29.4,9.7 L29.4,4.8 L28.6,4.8 L28.6,3.9 L29.4,3.9 L29.4,1.9 L30.3,1.9 L30.3,3.9 L31.4,3.9 L31.4,4.7 L30.3,4.7 L30.3,9.6 L31.4,9.6 L31.4,10.4 Z" id="Path"></path>
                    <path d="M36.2,9.6 C36.2,10.1 36,10.3 35.5,10.3 L33.4,10.3 C32.9,10.3 32.7,10.1 32.7,9.6 L32.7,4.7 C32.7,4.2 32.9,4 33.4,4 L35.5,4 C36,4 36.2,4.2 36.2,4.7 L36.2,7 L35.9,7.3 L33.4,7.3 L33.4,9.6 L35.3,9.6 L35.3,8.4 L36.2,8.4 L36.2,9.6 Z M35.3,6.6 L35.3,4.7 L33.4,4.7 L33.4,6.6 L35.3,6.6 Z" id="Shape"></path>
                    <path d="M41.1,6 L40.2,6 L40.2,4.7 L38.6,4.8 L38.6,10.4 L37.7,10.4 L37.7,3.9 L38.6,3.9 L38.6,4.1 C38.9,4.1 39.2,4 39.5,4 C39.8,3.9 40.1,3.9 40.3,3.9 C40.8,3.9 41,4.1 41,4.6 L41,6 L41.1,6 Z" id="Path"></path>
                    <polygon id="Path" points="48.6 0.8 47 0.8 47 10.3 46.1 10.3 46.1 0.8 44.5 0.8 44.5 7.10542736e-15 48.7 7.10542736e-15 48.7 0.8"></polygon>
                    <path d="M52.9,6 L52.1,6 L52.1,4.7 L50.5,4.8 L50.5,10.4 L49.6,10.4 L49.6,3.9 L50.5,3.9 L50.5,4.1 C50.8,4.1 51.1,4 51.4,4 C51.8,3.9 52.1,3.9 52.3,3.9 C52.8,3.9 53,4.1 53,4.6 L53,6 L52.9,6 Z" id="Path"></path>
                    <path d="M57.7,10.4 L56.8,10.4 L56.8,10.2 C56.4,10.2 56.1,10.3 55.7,10.3 C55.3,10.4 54.9,10.4 54.7,10.4 C54.2,10.4 54,10.2 54,9.7 L54,7.4 C54,6.9 54.3,6.7 54.8,6.7 L56.9,6.7 L56.9,4.8 L55,4.8 L55,5.9 L54.1,5.9 L54.1,4.8 C54.1,4.3 54.3,4.1 54.8,4.1 L56.9,4.1 C57.4,4.1 57.6,4.3 57.6,4.8 L57.6,10.4 L57.7,10.4 Z M56.9,9.6 L56.9,7.3 L54.9,7.3 L54.9,9.6 L56.9,9.6 Z" id="Shape"></path>
                    <path d="M60.1,2.5 L59.2,2.5 L59.2,1.4 L60.1,1.4 L60.1,2.5 Z M60.1,10.4 L59.2,10.4 L59.2,3.9 L60.1,3.9 L60.1,10.4 Z" id="Shape"></path>
                    <path d="M65.4,10.4 L64.5,10.4 L64.5,4.8 L62.5,4.9 L62.5,10.5 L61.6,10.5 L61.6,3.9 L62.5,3.9 L62.5,4.1 C62.8,4.1 63.2,4 63.5,4 C63.9,3.9 64.3,3.9 64.6,3.9 C65.1,3.9 65.3,4.1 65.3,4.6 L65.3,10.4 L65.4,10.4 Z" id="Path"></path>
                    <path d="M67.7,2.5 L66.8,2.5 L66.8,1.4 L67.7,1.4 L67.7,2.5 Z M67.7,10.4 L66.8,10.4 L66.8,3.9 L67.7,3.9 L67.7,10.4 Z" id="Shape"></path>
                    <path d="M73,10.4 L72.1,10.4 L72.1,4.8 L70.1,4.9 L70.1,10.5 L69.2,10.5 L69.2,3.9 L70.1,3.9 L70.1,4.1 C70.4,4.1 70.8,4 71.1,4 C71.5,3.9 71.9,3.9 72.2,3.9 C72.7,3.9 72.9,4.1 72.9,4.6 L72.9,10.4 L73,10.4 Z" id="Path"></path>
                    <path d="M78.1,12.1 C78.1,12.6 77.8,12.8 77.3,12.8 L75.2,12.8 C74.7,12.8 74.4,12.5 74.4,11.9 C74.4,11.8 74.4,11.7 74.4,11.6 C74.4,11.5 74.4,11.3 74.4,11.3 L75.3,11.3 L75.3,12.2 L77.2,12.2 L77.2,10.5 L75.7,10.5 C75.3,10.5 75,10.4 74.7,10.1 C74.4,9.8 74.3,9.5 74.3,9.1 L74.3,5.3 C74.3,4.9 74.4,4.6 74.6,4.4 C74.8,4.1 75.1,4 75.5,4 C75.6,4 76.1,4.1 77.1,4.2 L77.1,3.9 L78.1,3.9 L78.1,12.1 Z M77.2,9.6 L77.2,4.7 C76.5,4.7 76.1,4.6 76,4.6 C75.5,4.6 75.3,4.8 75.3,5.3 L75.3,8.7 C75.3,9.2 75.5,9.4 76,9.4 L77.2,9.4 L77.2,9.6 Z" id="Shape"></path>
                    <polygon id="Path" points="83.3 10.4 82.4 10.4 82.4 7.10542736e-15 83.3 7.10542736e-15"></polygon>
                    <path d="M88.7,10.4 L87.8,10.4 L87.8,4.8 L85.8,4.9 L85.8,10.5 L84.9,10.5 L84.9,3.9 L85.8,3.9 L85.8,4.1 C86.1,4.1 86.5,4 86.8,4 C87.2,3.9 87.6,3.9 87.9,3.9 C88.4,3.9 88.6,4.1 88.6,4.6 L88.6,10.4 L88.7,10.4 Z" id="Path"></path>
                    <path d="M93.6,9.6 C93.6,10.1 93.3,10.3 92.8,10.3 L90.8,10.3 C90.3,10.3 90,10.1 90,9.6 L90,8.1 L90.9,8.1 L90.9,9.5 L92.7,9.5 L92.7,8.2 L90.4,6.3 C90.2,6.1 90.1,5.9 90.1,5.6 L90.1,4.5 C90.1,4 90.4,3.8 90.9,3.8 L92.9,3.8 C93.4,3.8 93.7,4 93.7,4.5 L93.7,5.8 L92.8,5.8 L92.8,4.5 L91,4.5 L91,5.6 L93.3,7.5 C93.5,7.7 93.6,7.9 93.6,8.2 L93.6,9.6 Z" id="Path"></path>
                    <path d="M97.3,10.4 L96.1,10.4 C95.6,10.4 95.4,10.2 95.4,9.7 L95.4,4.8 L94.6,4.8 L94.6,3.9 L95.4,3.9 L95.4,1.9 L96.3,1.9 L96.3,3.9 L97.4,3.9 L97.4,4.7 L96.3,4.7 L96.3,9.6 L97.4,9.6 L97.4,10.4 L97.3,10.4 Z" id="Path"></path>
                    <path d="M99.4,2.5 L98.5,2.5 L98.5,1.4 L99.4,1.4 L99.4,2.5 Z M99.4,10.4 L98.5,10.4 L98.5,3.9 L99.4,3.9 L99.4,10.4 Z" id="Shape"></path>
                    <path d="M103.2,10.4 L101.9,10.4 C101.4,10.4 101.2,10.2 101.2,9.7 L101.2,4.8 L100.4,4.8 L100.4,3.9 L101.2,3.9 L101.2,1.9 L102.1,1.9 L102.1,3.9 L103.2,3.9 L103.2,4.7 L102.1,4.7 L102.1,9.6 L103.2,9.6 L103.2,10.4 Z" id="Path"></path>
                    <path d="M108.1,10.4 L107.2,10.4 L107.2,10.2 C106.8,10.2 106.5,10.3 106.1,10.3 C105.7,10.4 105.3,10.4 105,10.4 C104.5,10.4 104.3,10.2 104.3,9.7 L104.3,3.9 L105.2,3.9 L105.2,9.5 L107.2,9.4 L107.2,3.9 L108.1,3.9 L108.1,10.4 L108.1,10.4 Z" id="Path"></path>
                    <path d="M111.9,10.4 L110.6,10.4 C110.1,10.4 109.9,10.2 109.9,9.7 L109.9,4.8 L109.1,4.8 L109.1,3.9 L109.9,3.9 L109.9,1.9 L110.8,1.9 L110.8,3.9 L111.9,3.9 L111.9,4.7 L110.8,4.7 L110.8,9.6 L111.9,9.6 L111.9,10.4 Z" id="Path"></path>
                    <path d="M116.6,9.6 C116.6,10.1 116.4,10.3 115.9,10.3 L113.8,10.3 C113.3,10.3 113.1,10.1 113.1,9.6 L113.1,4.7 C113.1,4.2 113.3,4 113.8,4 L115.9,4 C116.4,4 116.6,4.2 116.6,4.7 L116.6,7 L116.3,7.3 L113.8,7.3 L113.8,9.6 L115.7,9.6 L115.7,8.4 L116.6,8.4 L116.6,9.6 L116.6,9.6 Z M115.8,6.6 L115.8,4.7 L113.9,4.7 L113.9,6.6 L115.8,6.6 Z" id="Shape"></path>
                    <path d="M125,5.5 C125,5.7 124.9,5.9 124.8,6 C124.7,6.1 124.5,6.2 124.3,6.2 L121.8,6.2 L121.8,10.3 L120.9,10.3 L120.9,7.10542736e-15 L124.3,7.10542736e-15 C124.5,7.10542736e-15 124.7,0.1 124.8,0.2 C124.9,0.3 125,0.5 125,0.7 L125,5.5 Z M124.1,5.4 L124.1,0.8 L121.8,0.8 L121.8,5.4 L124.1,5.4 Z" id="Shape"></path>
                    <polygon id="Path" points="130 3.9 128.4 10.3 127.6 10.3 126 3.9 126.9 3.9 128 9 129.1 3.9"></polygon>
                    <path d="M133.5,10.4 L132.2,10.4 C131.7,10.4 131.5,10.2 131.5,9.7 L131.5,4.8 L130.7,4.8 L130.7,3.9 L131.5,3.9 L131.5,1.9 L132.4,1.9 L132.4,3.9 L133.5,3.9 L133.5,4.7 L132.4,4.7 L132.4,9.6 L133.5,9.6 L133.5,10.4 Z" id="Path"></path>
                    <polygon id="Path" points="135.5 10.4 134.5 10.4 134.5 9.2 135.5 9.2"></polygon>
                    <polygon id="Path" points="143 10.4 139.7 10.4 139.7 7.10542736e-15 140.6 7.10542736e-15 140.6 9.5 143 9.5"></polygon>
                    <path d="M146.5,10.4 L145.2,10.4 C144.7,10.4 144.5,10.2 144.5,9.7 L144.5,4.8 L143.7,4.8 L143.7,3.9 L144.5,3.9 L144.5,1.9 L145.4,1.9 L145.4,3.9 L146.5,3.9 L146.5,4.7 L145.4,4.7 L145.4,9.6 L146.5,9.6 L146.5,10.4 Z" id="Path"></path>
                    <path d="M151.3,10.4 L150.4,10.4 L150.4,10.2 C149.4,10.3 148.9,10.4 148.8,10.4 C148.4,10.4 148.1,10.3 147.9,10 C147.7,9.7 147.6,9.4 147.6,9.1 L147.6,5.3 C147.6,4.9 147.7,4.6 148,4.3 C148.3,4 148.6,3.9 149,3.9 L150.5,3.9 L150.5,1.42108547e-14 L151.4,1.42108547e-14 L151.4,10.4 L151.3,10.4 Z M150.4,9.6 L150.4,4.7 L149.2,4.7 C148.7,4.7 148.5,4.9 148.5,5.4 L148.5,8.9 C148.5,9.4 148.7,9.6 149.2,9.6 C149.3,9.6 149.7,9.6 150.4,9.6 Z" id="Shape"></path>
                    <polygon id="Path" points="153.7 10.4 152.7 10.4 152.7 9.2 153.7 9.2"></polygon>
                </g>
                <g transform="translate(0.000000, 59.200000)" fill="#000000" fill-rule="nonzero">
                    <polygon id="Path" points="14.7 6.9 14.7 0.2 16 0.2 16 6.9"></polygon>
                    <path d="M23.3,3.6 C23.3,2.9 23.4,2.3 23.6,1.9 C23.8,1.6 24,1.2 24.2,1 C24.5,0.7 24.8,0.5 25.1,0.4 C25.5,0.2 26,0.1 26.6,0.1 C27.6,0.1 28.4,0.4 29,1 C29.6,1.6 29.9,2.5 29.9,3.6 C29.9,4.7 29.6,5.5 29,6.2 C28.4,6.8 27.6,7.1 26.6,7.1 C25.6,7.1 24.8,6.8 24.2,6.2 C23.6,5.5 23.3,4.6 23.3,3.6 Z M24.7,3.5 C24.7,4.3 24.9,4.8 25.2,5.2 C25.6,5.6 26,5.8 26.5,5.8 C27,5.8 27.5,5.6 27.8,5.2 C28.1,4.8 28.3,4.2 28.3,3.4 C28.3,2.6 28.1,2.1 27.8,1.7 C27.5,1.3 27,1.1 26.5,1.1 C25.9,1.1 25.5,1.3 25.1,1.7 C24.9,2.2 24.7,2.7 24.7,3.5 Z" id="Shape"></path>
                    <path d="M40.6,0.1 C41.3,0.1 41.8,0.3 42.1,0.8 C42.5,1.4 42.8,2.3 42.8,3.5 C42.8,4.8 42.6,5.7 42.1,6.2 C41.7,6.7 41.2,6.9 40.6,6.9 C39.9,6.9 39.4,6.6 39,6.1 C38.6,5.6 38.4,4.7 38.4,3.4 C38.4,2.1 38.6,1.2 39.1,0.7 C39.5,0.4 40,0.1 40.6,0.1 Z M40.6,1.2 C40.4,1.2 40.3,1.2 40.2,1.3 C40.1,1.4 40,1.6 39.9,1.8 C39.8,2.1 39.8,2.7 39.8,3.5 C39.8,4.3 39.8,4.8 39.9,5.1 C40,5.4 40.1,5.6 40.2,5.7 C40.3,5.8 40.5,5.8 40.6,5.8 C40.8,5.8 40.9,5.8 41,5.7 C41.1,5.6 41.2,5.4 41.3,5.2 C41.4,4.9 41.4,4.3 41.4,3.5 C41.4,2.7 41.4,2.2 41.3,1.9 C41.2,1.6 41.1,1.4 41,1.3 C40.9,1.2 40.8,1.2 40.6,1.2 Z" id="Shape"></path>
                    <path d="M45.9,0.1 C46.6,0.1 47.1,0.3 47.4,0.8 C47.8,1.4 48.1,2.3 48.1,3.5 C48.1,4.8 47.9,5.7 47.4,6.2 C47,6.7 46.5,6.9 45.9,6.9 C45.2,6.9 44.7,6.6 44.3,6.1 C43.9,5.6 43.7,4.7 43.7,3.4 C43.7,2.1 43.9,1.2 44.4,0.7 C44.7,0.4 45.2,0.1 45.9,0.1 Z M45.9,1.2 C45.7,1.2 45.6,1.2 45.5,1.3 C45.4,1.4 45.3,1.6 45.2,1.8 C45.1,2.2 45,2.8 45,3.6 C45,4.4 45,4.9 45.1,5.2 C45.2,5.5 45.3,5.7 45.4,5.8 C45.5,5.9 45.7,5.9 45.8,5.9 C46,5.9 46.1,5.9 46.2,5.8 C46.3,5.7 46.4,5.5 46.5,5.3 C46.6,5 46.6,4.4 46.6,3.6 C46.6,2.8 46.6,2.3 46.5,2 C46.4,1.7 46.3,1.5 46.2,1.4 C46.2,1.2 46,1.2 45.9,1.2 Z" id="Shape"></path>
                    <path d="M52.2,6.9 L50.9,6.9 L50.9,2 C50.4,2.4 49.9,2.8 49.2,3 L49.2,1.8 C49.5,1.7 49.9,1.5 50.3,1.2 C50.7,0.9 51,0.5 51.1,0.1 L52.1,0.1 L52.1,6.9 L52.2,6.9 Z" id="Path"></path>
                    <path d="M54.7,3.3 L54.7,2 L56,2 L56,3.3 L54.7,3.3 Z M54.7,6.9 L54.7,5.6 L56,5.6 L56,6.9 L54.7,6.9 Z" id="Shape"></path>
                    <g>
                        <g transform="translate(0.000000, 0.200000)">
                            <path d="M0,6.6 L2.5,-1.42108547e-14 L3.4,-1.42108547e-14 L6.1,6.6 L5.1,6.6 L4.3,4.6 L1.6,4.6 L0.9,6.6 L0,6.6 Z M1.9,3.9 L4.1,3.9 L3.4,2.1 C3.2,1.5 3,1.1 2.9,0.7 C2.8,1.1 2.7,1.5 2.5,2 L1.9,3.9 Z" id="Shape"></path>
                            <path d="M6.7,6.6 L6.7,1.8 L7.4,1.8 L7.4,2.5 C7.7,2 8.3,1.7 8.9,1.7 C9.2,1.7 9.5,1.8 9.7,1.9 C9.9,2 10.1,2.1 10.2,2.3 C10.3,2.5 10.4,2.7 10.5,2.9 C10.5,3 10.5,3.3 10.5,3.7 L10.5,6.6 L9.7,6.6 L9.7,3.7 C9.7,3.4 9.7,3.1 9.6,3 C9.5,2.8 9.4,2.7 9.3,2.6 C9.1,2.5 9,2.5 8.7,2.5 C8.4,2.5 8.1,2.6 7.8,2.8 C7.6,3 7.4,3.4 7.4,4 L7.4,6.6 L6.7,6.6 Z" id="Path"></path>
                        </g>
                        <path d="M16.7,4.7 L18,4.6 C18.1,5 18.2,5.4 18.5,5.6 C18.7,5.8 19.1,5.9 19.5,5.9 C19.9,5.9 20.2,5.8 20.5,5.6 C20.7,5.4 20.8,5.2 20.8,5 C20.8,4.8 20.8,4.7 20.7,4.6 C20.6,4.5 20.4,4.4 20.2,4.3 C20,4.2 19.7,4.2 19.1,4 C18.4,3.8 17.9,3.6 17.6,3.4 C17.2,3 17,2.6 17,2.1 C17,1.8 17.1,1.5 17.3,1.2 C17.5,0.9 17.8,0.7 18.1,0.5 C18.5,0.3 18.9,0.3 19.4,0.3 C20.2,0.3 20.8,0.5 21.3,0.8 C21.7,1.2 21.9,1.6 22,2.2 L20.7,2.3 C20.6,2 20.5,1.7 20.3,1.6 C20.1,1.5 19.8,1.4 19.5,1.4 C19.1,1.4 18.8,1.5 18.6,1.6 C18.5,1.7 18.4,1.8 18.4,2 C18.4,2.2 18.5,2.3 18.6,2.4 C18.8,2.5 19.2,2.7 19.8,2.8 C20.4,3 20.9,3.1 21.2,3.3 C21.5,3.5 21.8,3.7 21.9,4 C22.1,4.3 22.2,4.6 22.2,5 C22.2,5.4 22.1,5.7 21.9,6.1 C21.7,6.4 21.4,6.7 21,6.8 C20.6,7 20.1,7 19.6,7 C18.8,7 18.1,6.8 17.7,6.4 C17,6 16.8,5.4 16.7,4.7 Z" id="Path"></path>
                        <path d="M32.6,5.3 L33.8,5.2 C33.8,5.4 33.9,5.6 34,5.8 C34.1,5.9 34.3,6 34.5,6 C34.8,6 35,5.9 35.2,5.6 C35.4,5.4 35.5,4.9 35.5,4.1 C35.2,4.5 34.8,4.7 34.3,4.7 C33.8,4.7 33.3,4.5 33,4.1 C32.6,3.7 32.4,3.2 32.4,2.5 C32.4,1.8 32.6,1.3 33,0.9 C33.4,0.5 33.9,0.3 34.5,0.3 C35.2,0.3 35.7,0.6 36.1,1.1 C36.5,1.6 36.7,2.5 36.7,3.6 C36.7,4.8 36.5,5.7 36,6.2 C35.6,6.7 35,7 34.3,7 C33.8,7 33.4,6.9 33.1,6.6 C32.9,6.3 32.6,5.9 32.6,5.3 Z M35.4,2.6 C35.4,2.2 35.3,1.9 35.1,1.7 C34.9,1.5 34.7,1.4 34.5,1.4 C34.3,1.4 34.1,1.5 33.9,1.7 C33.7,1.9 33.7,2.2 33.7,2.6 C33.7,3 33.8,3.3 34,3.5 C34.2,3.7 34.4,3.8 34.6,3.8 C34.8,3.8 35,3.7 35.2,3.5 C35.3,3.2 35.4,2.9 35.4,2.6 Z" id="Shape"></path>
                        <g transform="translate(79.200000, 0.000000)">
                            <path d="M4.8,4.5 L5.7,4.7 C5.5,5.4 5.2,6 4.7,6.3 C4.2,6.7 3.6,6.9 3,6.9 C2.3,6.9 1.7,6.8 1.3,6.5 C0.9,6.2 0.5,5.8 0.3,5.2 C0.1,4.7 -1.42108547e-14,4.1 -1.42108547e-14,3.4 C-1.42108547e-14,2.7 0.1,2.1 0.4,1.6 C0.7,1.1 1,0.7 1.5,0.4 C2,0.1 2.5,0 3.1,0 C3.8,0 4.3,0.2 4.8,0.5 C5.2,0.8 5.6,1.3 5.7,1.9 L4.8,2.1 C4.6,1.6 4.4,1.3 4.1,1.1 C3.8,0.9 3.4,0.8 3,0.8 C2.5,0.8 2.1,0.9 1.7,1.2 C1.4,1.4 1.1,1.8 1,2.2 C0.9,2.6 0.8,3 0.8,3.5 C0.8,4.1 0.9,4.5 1,5 C1.2,5.4 1.4,5.7 1.8,5.9 C2.1,6.1 2.5,6.2 2.9,6.2 C3.4,6.2 3.8,6.1 4.1,5.8 C4.4,5.5 4.6,5.1 4.8,4.5 Z" id="Path"></path>
                            <path d="M9.9,5.3 L10.7,5.4 C10.6,5.9 10.3,6.3 10,6.5 C9.6,6.8 9.2,6.9 8.6,6.9 C7.9,6.9 7.4,6.7 6.9,6.3 C6.5,5.9 6.3,5.3 6.3,4.5 C6.3,3.7 6.5,3.1 6.9,2.6 C7.3,2.2 7.8,1.9 8.5,1.9 C9.1,1.9 9.7,2.1 10.1,2.5 C10.5,2.9 10.7,3.5 10.7,4.3 C10.7,4.3 10.7,4.4 10.7,4.5 L7.2,4.5 C7.2,5 7.4,5.4 7.6,5.7 C7.9,6 8.2,6.1 8.6,6.1 C8.9,6.1 9.1,6 9.4,5.9 C9.6,5.9 9.7,5.6 9.9,5.3 Z M7.2,4 L9.9,4 C9.9,3.6 9.8,3.3 9.6,3.1 C9.3,2.8 9,2.6 8.6,2.6 C8.2,2.6 7.9,2.7 7.7,3 C7.4,3.2 7.2,3.6 7.2,4 Z" id="Shape"></path>
                            <path d="M11.7,6.8 L11.7,2 L12.4,2 L12.4,2.8 C12.6,2.5 12.8,2.2 12.9,2.1 C13.1,2 13.2,1.9 13.4,1.9 C13.7,1.9 13.9,2 14.2,2.2 L13.9,2.9 C13.7,2.8 13.5,2.7 13.3,2.7 C13.1,2.7 13,2.8 12.8,2.9 C12.7,3 12.6,3.2 12.5,3.3 C12.4,3.6 12.4,3.9 12.4,4.2 L12.4,6.8 L11.7,6.8 Z" id="Path"></path>
                            <path d="M16.5,6.1 L16.6,6.8 C16.4,6.8 16.2,6.9 16,6.9 C15.7,6.9 15.5,6.9 15.3,6.8 C15.1,6.7 15,6.6 15,6.4 C14.9,6.2 14.9,5.9 14.9,5.4 L14.9,2.7 L14.3,2.7 L14.3,2.1 L14.9,2.1 L14.9,0.9 L15.7,0.4 L15.7,2.1 L16.5,2.1 L16.5,2.7 L15.7,2.7 L15.7,5.5 C15.7,5.7 15.7,5.9 15.7,5.9 C15.7,6 15.8,6 15.8,6.1 C15.9,6.1 16,6.2 16.1,6.2 C16.3,6.1 16.4,6.1 16.5,6.1 Z" id="Path"></path>
                            <path d="M17.3,1.2 L17.3,0.3 L18.1,0.3 L18.1,1.2 L17.3,1.2 Z M17.3,6.8 L17.3,2 L18.1,2 L18.1,6.8 L17.3,6.8 Z" id="Shape"></path>
                            <path d="M19.5,6.8 L19.5,2.7 L18.8,2.7 L18.8,2.1 L19.5,2.1 L19.5,1.6 C19.5,1.3 19.5,1 19.6,0.9 C19.7,0.7 19.8,0.5 20,0.4 C20.2,0.3 20.5,0.2 20.8,0.2 C21,0.2 21.3,0.2 21.6,0.3 L21.5,1 C21.3,1 21.2,1 21,1 C20.8,1 20.6,1.1 20.5,1.2 C20.4,1.3 20.3,1.5 20.3,1.8 L20.3,2.2 L21.2,2.2 L21.2,2.8 L20.3,2.8 L20.3,6.8 L19.5,6.8 Z" id="Path"></path>
                            <path d="M21.9,1.2 L21.9,0.3 L22.7,0.3 L22.7,1.2 L21.9,1.2 Z M21.9,6.8 L21.9,2 L22.7,2 L22.7,6.8 L21.9,6.8 Z" id="Shape"></path>
                            <path d="M27.2,5.3 L28,5.4 C27.9,5.9 27.6,6.3 27.3,6.5 C26.9,6.8 26.5,6.9 25.9,6.9 C25.2,6.9 24.7,6.7 24.2,6.3 C23.8,5.9 23.6,5.3 23.6,4.5 C23.6,3.7 23.8,3.1 24.2,2.6 C24.6,2.2 25.1,1.9 25.8,1.9 C26.4,1.9 27,2.1 27.4,2.5 C27.8,2.9 28,3.5 28,4.3 C28,4.3 28,4.4 28,4.5 L24.5,4.5 C24.5,5 24.7,5.4 24.9,5.7 C25.2,6 25.5,6.1 25.9,6.1 C26.2,6.1 26.4,6 26.7,5.9 C26.9,5.9 27.1,5.6 27.2,5.3 Z M24.5,4 L27.2,4 C27.2,3.6 27.1,3.3 26.9,3.1 C26.6,2.8 26.3,2.6 25.9,2.6 C25.5,2.6 25.2,2.7 25,3 C24.7,3.2 24.6,3.6 24.5,4 Z" id="Shape"></path>
                            <path d="M32.1,6.8 L32.1,6.2 C31.8,6.7 31.4,6.9 30.8,6.9 C30.4,6.9 30.1,6.8 29.8,6.6 C29.5,6.4 29.2,6.1 29.1,5.7 C28.9,5.3 28.8,4.9 28.8,4.4 C28.8,3.9 28.9,3.5 29,3.1 C29.2,2.7 29.4,2.4 29.7,2.2 C30,2 30.4,1.9 30.8,1.9 C31.1,1.9 31.3,2 31.6,2.1 C31.8,2.2 32,2.4 32.1,2.6 L32.1,0.2 L32.9,0.2 L32.9,6.8 L32.1,6.8 Z M29.6,4.5 C29.6,5.1 29.7,5.6 30,5.9 C30.3,6.2 30.6,6.4 30.9,6.4 C31.3,6.4 31.6,6.3 31.8,6 C32,5.7 32.2,5.3 32.2,4.7 C32.2,4 32.1,3.6 31.8,3.3 C31.5,3 31.2,2.8 30.9,2.8 C30.5,2.8 30.2,2.9 30,3.2 C29.7,3.4 29.6,3.8 29.6,4.5 Z" id="Shape"></path>
                            <path d="M41.5,4.5 L42.4,4.7 C42.2,5.4 41.9,6 41.4,6.3 C40.9,6.7 40.3,6.9 39.7,6.9 C39,6.9 38.4,6.8 38,6.5 C37.6,6.2 37.2,5.8 37,5.2 C36.8,4.7 36.7,4.1 36.7,3.4 C36.7,2.7 36.8,2.1 37.1,1.6 C37.4,1.1 37.7,0.7 38.2,0.4 C38.7,0.1 39.2,0 39.8,0 C40.5,0 41,0.2 41.5,0.5 C41.9,0.8 42.3,1.3 42.4,1.9 L41.5,2.1 C41.3,1.6 41.1,1.3 40.8,1.1 C40.5,0.9 40.1,0.8 39.7,0.8 C39.2,0.8 38.8,0.9 38.4,1.2 C38.1,1.4 37.8,1.8 37.7,2.2 C37.6,2.6 37.5,3 37.5,3.5 C37.5,4.1 37.6,4.5 37.7,5 C37.9,5.4 38.1,5.7 38.5,5.9 C38.8,6.1 39.2,6.2 39.6,6.2 C40.1,6.2 40.5,6.1 40.8,5.8 C41.1,5.5 41.4,5.1 41.5,4.5 Z" id="Path"></path>
                            <path d="M43,4.5 C43,3.6 43.2,3 43.7,2.5 C44.1,2.1 44.6,2 45.2,2 C45.9,2 46.4,2.2 46.8,2.6 C47.2,3 47.4,3.6 47.4,4.4 C47.4,5 47.3,5.5 47.1,5.8 C46.9,6.2 46.6,6.4 46.3,6.6 C45.9,6.8 45.6,6.9 45.2,6.9 C44.5,6.9 44,6.7 43.6,6.3 C43.2,5.9 43,5.3 43,4.5 Z M43.8,4.5 C43.8,5.1 43.9,5.6 44.2,5.9 C44.5,6.2 44.8,6.4 45.2,6.4 C45.6,6.4 45.9,6.2 46.2,5.9 C46.5,5.6 46.6,5.1 46.6,4.5 C46.6,3.9 46.5,3.5 46.2,3.2 C45.9,2.9 45.6,2.7 45.2,2.7 C44.8,2.7 44.5,2.9 44.2,3.2 C44,3.4 43.8,3.8 43.8,4.5 Z" id="Shape"></path>
                            <path d="M48.4,6.8 L48.4,2 L49.1,2 L49.1,2.7 C49.2,2.5 49.4,2.3 49.7,2.1 C49.9,2 50.2,1.9 50.5,1.9 C50.9,1.9 51.1,2 51.4,2.1 C51.6,2.2 51.8,2.5 51.9,2.7 C52.3,2.1 52.8,1.9 53.4,1.9 C53.9,1.9 54.2,2 54.5,2.3 C54.8,2.6 54.9,3 54.9,3.5 L54.9,6.8 L54.1,6.8 L54.1,3.8 C54.1,3.5 54.1,3.2 54,3.1 C53.9,3 53.9,2.8 53.7,2.8 C53.6,2.7 53.4,2.7 53.2,2.7 C52.9,2.7 52.6,2.8 52.4,3 C52.2,3.2 52.1,3.6 52.1,4.1 L52.1,6.8 L51.3,6.8 L51.3,3.7 C51.3,3.3 51.2,3.1 51.1,2.9 C51,2.7 50.8,2.6 50.5,2.6 C50.3,2.6 50.1,2.7 49.9,2.8 C49.7,2.9 49.6,3.1 49.5,3.3 C49.4,3.5 49.4,3.9 49.4,4.3 L49.4,6.8 L48.4,6.8 Z" id="Path"></path>
                            <path d="M56.1,8.7 L56.1,2.1 L56.8,2.1 L56.8,2.7 C57,2.5 57.2,2.3 57.4,2.2 C57.6,2.1 57.9,2 58.2,2 C58.6,2 59,2.1 59.3,2.3 C59.6,2.5 59.8,2.8 60,3.2 C60.2,3.6 60.2,4 60.2,4.5 C60.2,5 60.1,5.4 59.9,5.8 C59.7,6.2 59.5,6.5 59.1,6.7 C58.8,6.9 58.4,7 58,7 C57.7,7 57.5,6.9 57.3,6.8 C57.1,6.7 56.9,6.5 56.8,6.4 L56.8,8.7 L56.1,8.7 L56.1,8.7 Z M56.8,4.5 C56.8,5.1 56.9,5.6 57.2,5.9 C57.4,6.2 57.7,6.3 58.1,6.3 C58.5,6.3 58.8,6.1 59,5.8 C59.3,5.5 59.4,5 59.4,4.4 C59.4,3.8 59.3,3.3 59,3 C58.8,2.7 58.5,2.5 58.1,2.5 C57.8,2.5 57.5,2.7 57.2,3 C56.9,3.4 56.8,3.9 56.8,4.5 Z" id="Shape"></path>
                            <path d="M64.3,6.2 C64,6.5 63.7,6.6 63.4,6.7 C63.1,6.8 62.8,6.9 62.5,6.9 C62,6.9 61.6,6.8 61.3,6.5 C61,6.2 60.9,5.9 60.9,5.5 C60.9,5.3 61,5.1 61.1,4.9 C61.2,4.7 61.3,4.6 61.5,4.4 C61.7,4.3 61.9,4.2 62.1,4.1 C62.3,4.1 62.5,4 62.8,4 C63.5,3.9 63.9,3.8 64.2,3.7 C64.2,3.6 64.2,3.5 64.2,3.5 C64.2,3.2 64.1,2.9 64,2.8 C63.8,2.6 63.5,2.5 63.1,2.5 C62.7,2.5 62.4,2.6 62.3,2.7 C62.1,2.8 62,3.1 61.9,3.4 L61.1,3.3 C61.2,3 61.3,2.7 61.5,2.5 C61.7,2.3 61.9,2.1 62.2,2 C62.5,1.9 62.9,1.8 63.3,1.8 C63.7,1.8 64,1.8 64.3,1.9 C64.6,2 64.7,2.1 64.9,2.3 C65,2.4 65.1,2.6 65.2,2.8 C65.2,2.9 65.2,3.2 65.2,3.5 L65.2,4.8 C65.2,5.6 65.2,6 65.3,6.2 C65.3,6.4 65.4,6.6 65.5,6.8 L64.7,6.8 C64.3,6.7 64.3,6.5 64.3,6.2 Z M64.2,4.4 C63.9,4.5 63.5,4.6 62.9,4.7 C62.6,4.7 62.3,4.8 62.2,4.9 C62.1,5 62,5 61.9,5.2 C61.8,5.3 61.8,5.4 61.8,5.6 C61.8,5.8 61.9,6 62,6.1 C62.2,6.2 62.4,6.3 62.7,6.3 C63,6.3 63.3,6.2 63.5,6.1 C63.7,6 63.9,5.8 64,5.5 C64.1,5.3 64.1,5 64.1,4.7 L64.1,4.4 L64.2,4.4 Z" id="Shape"></path>
                            <path d="M66.3,6.8 L66.3,2 L67,2 L67,2.7 C67.4,2.2 67.9,1.9 68.5,1.9 C68.8,1.9 69.1,2 69.3,2.1 C69.5,2.2 69.7,2.3 69.8,2.5 C69.9,2.7 70,2.9 70.1,3.1 C70.1,3.2 70.1,3.5 70.1,3.9 L70.1,6.8 L69.3,6.8 L69.3,3.9 C69.3,3.6 69.3,3.3 69.2,3.2 C69.1,3 69,2.9 68.9,2.8 C68.7,2.7 68.6,2.7 68.3,2.7 C68,2.7 67.7,2.8 67.4,3 C67.2,3.2 67,3.6 67,4.2 L67,6.8 L66.3,6.8 Z" id="Path"></path>
                            <path d="M71.3,8.7 L71.2,7.9 C71.4,7.9 71.5,8 71.7,8 C71.9,8 72,8 72.1,7.9 C72.2,7.8 72.3,7.8 72.4,7.6 C72.5,7.5 72.5,7.3 72.6,7 C72.6,7 72.6,6.9 72.7,6.8 L70.9,2 L71.8,2 L72.8,4.8 C72.9,5.1 73,5.5 73.1,5.9 C73.2,5.5 73.3,5.2 73.4,4.8 L74.4,2 L75.2,2 L73.4,6.8 C73.2,7.3 73.1,7.7 72.9,7.9 C72.8,8.2 72.6,8.4 72.4,8.5 C72.2,8.6 72,8.7 71.7,8.7 C71.7,8.8 71.5,8.7 71.3,8.7 Z" id="Path"></path>
                        </g>
                    </g>
                    <g transform="translate(56.900000, 0.000000)">
                        <path d="M4.6,5.7 L4.6,6.9 L0,6.9 C0,6.4 0.2,6 0.4,5.6 C0.6,5.2 1.1,4.6 1.9,4 C2.5,3.5 2.9,3.1 3,2.9 C3.2,2.6 3.3,2.4 3.3,2.1 C3.3,1.8 3.2,1.6 3.1,1.4 C2.9,1.2 2.7,1.2 2.5,1.2 C2.2,1.2 2,1.3 1.8,1.4 C1.6,1.6 1.5,1.8 1.5,2.2 L0.2,2.1 C0.3,1.4 0.5,0.9 0.9,0.5 C1.3,0.2 1.8,2.13162821e-14 2.4,2.13162821e-14 C3.1,2.13162821e-14 3.6,0.2 4,0.5 C4.4,0.9 4.6,1.3 4.6,1.9 C4.6,2.2 4.5,2.5 4.4,2.8 C4.3,3.1 4.1,3.4 3.9,3.7 C3.7,3.9 3.5,4.2 3,4.6 C2.6,5 2.3,5.2 2.2,5.4 C2.1,5.5 2,5.6 1.9,5.8 L4.6,5.8 L4.6,5.7 Z" id="Path"></path>
                        <path d="M7.7,0 C8.4,0 8.9,0.2 9.3,0.7 C9.7,1.3 10,2.2 10,3.5 C10,4.8 9.8,5.7 9.3,6.3 C8.9,6.8 8.4,7 7.8,7 C7.1,7 6.6,6.7 6.2,6.2 C5.8,5.7 5.6,4.8 5.6,3.5 C5.6,2.2 5.8,1.3 6.3,0.7 C6.5,0.3 7,0 7.7,0 Z M7.7,1.1 C7.5,1.1 7.4,1.2 7.3,1.3 C7.2,1.4 7.1,1.6 7,1.8 C6.9,2.1 6.9,2.7 6.9,3.5 C6.9,4.3 6.9,4.9 7,5.2 C7.1,5.5 7.2,5.7 7.3,5.8 C7.4,5.9 7.6,5.9 7.7,5.9 C7.9,5.9 8,5.8 8.1,5.7 C8.2,5.6 8.3,5.4 8.4,5.2 C8.5,4.9 8.5,4.3 8.5,3.5 C8.5,2.7 8.5,2.1 8.4,1.8 C8.3,1.5 8.2,1.3 8.1,1.2 C8,1.2 7.8,1.1 7.7,1.1 Z" id="Shape"></path>
                        <path d="M14.1,6.9 L12.8,6.9 L12.8,2 C12.3,2.4 11.8,2.8 11.1,3 L11.1,1.8 C11.4,1.7 11.8,1.5 12.2,1.2 C12.6,0.9 12.9,0.5 13,0.1 L14.1,0.1 L14.1,6.9 Z" id="Path"></path>
                        <path d="M16.1,5.1 L17.4,5 C17.4,5.3 17.5,5.5 17.7,5.7 C17.9,5.9 18.1,6 18.3,6 C18.6,6 18.8,5.9 19,5.7 C19.2,5.5 19.3,5.1 19.3,4.7 C19.3,4.3 19.2,4 19,3.8 C18.8,3.6 18.6,3.5 18.3,3.5 C17.9,3.5 17.6,3.7 17.3,4 L16.2,3.8 L16.9,0.2 L20.4,0.2 L20.4,1.4 L17.9,1.4 L17.7,2.6 C18,2.5 18.3,2.4 18.6,2.4 C19.2,2.4 19.7,2.6 20.1,3 C20.5,3.4 20.7,4 20.7,4.6 C20.7,5.2 20.5,5.7 20.2,6.1 C19.8,6.7 19.1,7 18.4,7 C17.8,7 17.3,6.8 16.9,6.5 C16.4,6.2 16.2,5.7 16.1,5.1 Z" id="Path"></path>
                    </g>
                </g>
            </g>
            <rect id="Rectangle" x="0" y="0" width="178" height="74"></rect>
        </g>
    </g>
</svg>