<?xml version="1.0" encoding="utf-8"?>
<!-- Generator: Adobe Illustrator 26.0.1, SVG Export Plug-In . SVG Version: 6.00 Build 0)  -->
<svg version="1.1" id="Layer_2" xmlns="http://www.w3.org/2000/svg" xmlns:xlink="http://www.w3.org/1999/xlink" x="0px" y="0px"
	 viewBox="0 0 512 512" style="enable-background:new 0 0 512 512;" xml:space="preserve">
<style type="text/css">
	.st0{fill:none;stroke:#FCD900;stroke-width:10;stroke-miterlimit:10;}
	.st1{fill:none;}
	.st2{fill:none;stroke:#FCD900;stroke-width:10;stroke-linecap:round;stroke-miterlimit:10;}
	.st3{fill:#FCD900;}
	.st4{fill:none;stroke:#FCD900;stroke-width:10;stroke-linecap:round;stroke-linejoin:round;stroke-miterlimit:10;}
</style>
<g>
	<path class="st2" d="M98.48,275.13c0,0,67.72,1,91.36,1s63.9,35.94,84.02,35.94s40.25,5.75,40.25,14.38
		c20.13,0,48.88-8.63,67.57-15.81c18.69-7.19,23,0,28.75,7.19c5.75,7.19,4.31,24.44-11.5,33.06s-99.19,63.25-126.51,63.25
		s-80.5-50.32-99.19-50.32s-74.75,19.61-74.75,19.61"/>
	<path class="st2" d="M216.36,333.63c0,0,28.75,18.69,51.75,18.69s46-5.75,46-25.88"/>
	<circle class="st2" cx="309.8" cy="191.31" r="93.44"/>
	<path class="st2" d="M367.91,166.27c3.31,7.68,5.15,16.14,5.15,25.04c0,34.93-28.32,63.25-63.25,63.25s-63.25-28.32-63.25-63.25
		s28.32-63.25,63.25-63.25"/>
	<path class="st2" d="M334.42,133.03c7.29,3.08,13.88,7.49,19.47,12.93"/>
	<g>
		<path class="st3" d="M320.05,153.1H335l5.54-9.23h-55.38l-5.54,9.23h11.22c10.87,0,17.75,2.72,20.47,9.23h-26.15l-5.54,9.23h32.94
			c-0.82,9.7-8.8,16.15-22.3,16.15h-7.41v8.74l32.73,42.49h14.81c-11.05-14.4-23.2-29.76-34.25-44.31
			c14.39-1.04,26.85-9.29,28.59-23.08H335l5.54-9.23h-16.16C323.63,158.65,322.14,155.59,320.05,153.1"/>
	</g>
	<rect class="st1" width="512" height="512"/>
</g>
</svg>
