<?xml version="1.0" encoding="utf-8"?>
<!-- Generator: Adobe Illustrator 26.0.1, SVG Export Plug-In . SVG Version: 6.00 Build 0)  -->
<svg version="1.1" id="Layer_2" xmlns="http://www.w3.org/2000/svg" xmlns:xlink="http://www.w3.org/1999/xlink" x="0px" y="0px"
	 viewBox="0 0 512 512" style="enable-background:new 0 0 512 512;" xml:space="preserve">
<style type="text/css">
	.st0{fill:none;stroke:#FCD900;stroke-width:10;stroke-miterlimit:10;}
	.st1{fill:none;}
	.st2{fill:none;stroke:#FCD900;stroke-width:10;stroke-linecap:round;stroke-miterlimit:10;}
	.st3{fill:#FCD900;}
	.st4{fill:none;stroke:#FCD900;stroke-width:10;stroke-linecap:round;stroke-linejoin:round;stroke-miterlimit:10;}
</style>
<g>
	<g>
		<path class="st4" d="M119.4,121.77c-1.23-2.35-1.92-5.02-1.92-7.85v-4.23c0-9.38,7.6-16.98,16.98-16.98h287.37
			c9.38,0,16.98,7.6,16.98,16.98v4.23c0,9.38-7.6,16.98-16.98,16.98H159.53"/>
		<path class="st4" d="M174.76,329.75h238.29c6.95,0,12.58-5.63,12.58-12.58V130.89H159.62"/>
		<path class="st4" d="M265.63,90.73c0-8.73,7.08-15.8,15.8-15.8s15.8,7.08,15.8,15.8"/>
		<circle class="st4" cx="133.94" cy="151.31" r="32.92"/>
		<path class="st4" d="M174.76,242.17c0,0,34.24,19.75,40.14,19.75c5.9,0,23.07,0,33.61,0s14.49-7.9,14.49-17.12
			s-6.58-14.49-11.78-14.49c-5.2,0-11.92,0-26.45,0c-14.53,0-23.66-7.9-40.78-23.7s-38.19-19.75-50.04-20.27
			c-10.65-0.47-23.7,5.79-39.51,17.64c-15.8,11.85-22.39,27.66-21.07,46.09c1.32,18.44-0.14,44.24-0.14,53.73
			s11.99,17.39,18.58,17.39s11.85-1.32,11.85-1.32"/>
		<path class="st4" d="M137.89,315.26v103.38c0,10.18-8.25,18.44-18.44,18.44h0c-10.18,0-18.44-8.25-18.44-18.44V236.9"/>
		<path class="st4" d="M174.76,242.83v175.81c0,10.18-8.25,18.44-18.44,18.44h0c-10.18,0-18.44-8.25-18.44-18.44V313.94"/>
		<line class="st4" x1="232.71" y1="409.42" x2="281.43" y2="331.72"/>
		<line class="st4" x1="339.38" y1="409.42" x2="290.65" y2="331.72"/>
		<line class="st4" x1="285.38" y1="369.91" x2="285.38" y2="331.72"/>
		<line class="st4" x1="197.15" y1="292.22" x2="197.15" y2="311.97"/>
		<line class="st4" x1="227.44" y1="292.22" x2="227.44" y2="311.97"/>
		<line class="st4" x1="257.73" y1="292.22" x2="257.73" y2="311.97"/>
		<line class="st4" x1="288.02" y1="292.22" x2="288.02" y2="311.97"/>
		<line class="st4" x1="318.31" y1="292.22" x2="318.31" y2="311.97"/>
		<line class="st4" x1="348.6" y1="292.22" x2="348.6" y2="311.97"/>
		<line class="st4" x1="378.88" y1="292.22" x2="378.88" y2="311.97"/>
		<line class="st4" x1="409.17" y1="292.22" x2="409.17" y2="311.97"/>
	</g>
	<rect class="st1" width="512" height="512"/>
</g>
</svg>
