<?xml version="1.0" encoding="utf-8"?>
<!-- Generator: Adobe Illustrator 26.0.1, SVG Export Plug-In . SVG Version: 6.00 Build 0)  -->
<svg version="1.1" id="Layer_2" xmlns="http://www.w3.org/2000/svg" xmlns:xlink="http://www.w3.org/1999/xlink" x="0px" y="0px"
	 viewBox="0 0 512 512" style="enable-background:new 0 0 512 512;" xml:space="preserve">
<style type="text/css">
	.st0{fill:none;stroke:#FCD900;stroke-width:10;stroke-miterlimit:10;}
	.st1{fill:none;}
	.st2{fill:none;stroke:#FCD900;stroke-width:10;stroke-linecap:round;stroke-miterlimit:10;}
	.st3{fill:#FCD900;}
	.st4{fill:none;stroke:#FCD900;stroke-width:10;stroke-linecap:round;stroke-linejoin:round;stroke-miterlimit:10;}
</style>
<g>
	<g>
		<path class="st4" d="M176.32,167.1v20.1c0,0-18.75-1.35-18.75,24.09c1.34,16.07,18.75,29.89,18.75,29.89s34.82,73.23,79.01,73.23
			c45.53,0,87.81-73.23,87.81-73.23"/>
		<path class="st4" d="M200.42,160.41c0,0,18.75-6.57,20.09-20.7c9.37,19.23,57.59,30.07,81.69,19.36"/>
		<path class="st4" d="M318.27,275.58c0,0,54.91,33.48,80.28,48.5c25.23,14.94,40.25,35.87,40.25,55.96s0,64.89,0,64.89H73.2
			c0,0,0-44.8,0-64.89s15.8-39.77,40.25-55.96c22.69-15.02,84.11-48.5,84.11-48.5"/>
		<path class="st4" d="M277.47,286.3h-22.86c-5.52,0-10-4.48-10-10v-6.78c0-5.52,4.48-10,10-10h22.86c5.52,0,10,4.48,10,10v6.78
			C287.47,281.82,282.99,286.3,277.47,286.3z"/>
		<line class="st4" x1="337.02" y1="167.1" x2="337.02" y2="240.76"/>
		<path class="st4" d="M339.03,180.5c13.68,0,24.78,13.49,24.78,30.13s-11.09,30.13-24.78,30.13"/>
		<path class="st4" d="M343.14,241.19c0,0-14.16,31.71-55.67,31.71"/>
		<path class="st4" d="M363.81,303.23c0,0,38.89-11.57,46.9-27.65c-26.84-32.14-41.54-73.66-44.22-104.46s-22.97-71.46-64.28-94.8
			c-14.73-8.32-46.87-6.84-46.87-6.84s-24.11-9.52-58.93,9.23S145.12,143,142.64,180.5c-2.48,37.5-18.55,69.64-30.6,83.03
			c-12.05,13.39-2.68,21.43,4.02,25.45c6.7,4.02,34.56,12.84,34.56,12.84"/>
		<polyline class="st4" points="192.39,323.79 258.46,366.73 318.27,327.81 		"/>
		<line class="st4" x1="255.33" y1="386.57" x2="255.33" y2="421.44"/>
		<line class="st4" x1="287.47" y1="397.45" x2="287.47" y2="421.56"/>
		<line class="st4" x1="318.27" y1="397.45" x2="318.27" y2="421.56"/>
		<line class="st4" x1="349.08" y1="397.45" x2="349.08" y2="421.56"/>
		<line class="st4" x1="379.88" y1="397.45" x2="379.88" y2="421.56"/>
		<line class="st4" x1="410.68" y1="397.45" x2="410.68" y2="421.56"/>
		<line class="st4" x1="223.19" y1="397.45" x2="223.19" y2="421.56"/>
		<line class="st4" x1="192.39" y1="397.45" x2="192.39" y2="421.56"/>
		<line class="st4" x1="161.58" y1="397.45" x2="161.58" y2="421.56"/>
		<line class="st4" x1="130.78" y1="397.45" x2="130.78" y2="421.56"/>
		<line class="st4" x1="99.98" y1="397.45" x2="99.98" y2="421.56"/>
	</g>
	<rect class="st1" width="512" height="512"/>
</g>
</svg>
