<?xml version="1.0" encoding="utf-8"?>
<!-- Generator: Adobe Illustrator 26.0.1, SVG Export Plug-In . SVG Version: 6.00 Build 0)  -->
<svg version="1.1" id="Layer_2" xmlns="http://www.w3.org/2000/svg" xmlns:xlink="http://www.w3.org/1999/xlink" x="0px" y="0px"
	 viewBox="0 0 512 512" style="enable-background:new 0 0 512 512;" xml:space="preserve">
<style type="text/css">
	.st0{fill:none;stroke:#FCD900;stroke-width:10;stroke-miterlimit:10;}
	.st1{fill:none;}
	.st2{fill:none;stroke:#FCD900;stroke-width:10;stroke-linecap:round;stroke-miterlimit:10;}
	.st3{fill:#FCD900;}
	.st4{fill:none;stroke:#FCD900;stroke-width:10;stroke-linecap:round;stroke-linejoin:round;stroke-miterlimit:10;}
</style>
<g>
	<g>
		<path class="st0" d="M230.88,265.28L83.27,244.53C53.29,240.31,31,214.66,31,184.39v-54.84c0-8.88,7.2-16.08,16.08-16.08h417.84
			c8.88,0,16.08,7.2,16.08,16.08v55.14c0,30.14-22.11,55.72-51.93,60.09l-149.76,21.92"/>
		<path class="st0" d="M330.47,113.78l-25.32-32.83c-2.93-3.79-7.45-6.02-12.24-6.02h-74.13c-4.79,0-9.31,2.22-12.24,6.02
			l-25.32,32.83"/>
		<path class="st0" d="M276.28,315.16h-42.36c-1.67,0-3.03-1.35-3.03-3.03v-60.28c0-1.67,1.35-3.03,3.03-3.03h42.36
			c1.67,0,3.03,1.35,3.03,3.03v60.28C279.31,313.81,277.95,315.16,276.28,315.16z"/>
		<path class="st0" d="M465.76,223.82v181.53c0,17.52-14.2,31.72-31.72,31.72H79.75c-17.52,0-31.72-14.2-31.72-31.72V224.63"/>
	</g>
	<rect y="0" class="st1" width="512" height="512"/>
</g>
</svg>
