<?xml version="1.0" encoding="utf-8"?>
<!-- Generator: Adobe Illustrator 26.0.1, SVG Export Plug-In . SVG Version: 6.00 Build 0)  -->
<svg version="1.1" id="Layer_2" xmlns="http://www.w3.org/2000/svg" xmlns:xlink="http://www.w3.org/1999/xlink" x="0px" y="0px"
	 viewBox="0 0 512 512" style="enable-background:new 0 0 512 512;" xml:space="preserve">
<style type="text/css">
	.st0{fill:none;stroke:#FCD900;stroke-width:10;stroke-miterlimit:10;}
	.st1{fill:none;}
	.st2{fill:none;stroke:#FCD900;stroke-width:10;stroke-linecap:round;stroke-miterlimit:10;}
	.st3{fill:#FCD900;}
	.st4{fill:none;stroke:#FCD900;stroke-width:10;stroke-linecap:round;stroke-linejoin:round;stroke-miterlimit:10;}
</style>
<g>
	<g>
		<line class="st4" x1="204.46" y1="394.1" x2="239.93" y2="386.86"/>
		<g>
			<path class="st4" d="M274.35,74.95c82.37-1.42,139.17,55.38,139.17,110.77c0,78.11-34.08,124.97-34.08,153.37
				c0,18.03,6.3,52.66,10.89,75.55c2.33,11.61-6.55,22.44-18.39,22.44H222.96c-10.47,0-18.16-9.84-15.64-20l5.97-24.02
				c0,0-28.15,4.66-52.54,7.1c-28.4,2.84-28.4-21.3-28.4-32.66c0-11.36-1.42-28.98,0-47.15c0.81-8.61-12.34-10.99-23.73-11.46
				c-7.42-0.3-12.21-7.97-9.25-14.78c9.33-21.46,25.4-60.78,29.1-85.04C133.76,174.36,167.63,76.79,274.35,74.95z"/>
			<path class="st4" d="M370.72,208.46V188.3l-18.92-4.74c-0.63-3.14-1.45-6.21-2.45-9.2l14.01-13.55l-10.08-17.46l-18.77,5.36
				c-2.1-2.38-4.34-4.62-6.72-6.72l5.36-18.77l-17.46-10.08l-13.55,14.01c-2.99-1-6.06-1.83-9.2-2.45l-4.74-18.92h-20.16
				l-4.74,18.92c-3.14,0.63-6.21,1.45-9.2,2.46l-13.56-14.01l-17.46,10.08l5.36,18.78c-2.38,2.09-4.62,4.34-6.72,6.71l-18.77-5.36
				l-10.08,17.46l14.01,13.56c-1,2.99-1.83,6.06-2.45,9.2l-18.92,4.74v20.16l18.92,4.74c0.63,3.14,1.45,6.21,2.45,9.2l-14.01,13.55
				l10.08,17.46l18.77-5.36c2.1,2.38,4.34,4.62,6.72,6.72l-5.36,18.77l17.46,10.08l13.55-14.01c2.99,1.01,6.06,1.83,9.2,2.46
				l4.74,18.92h20.16l4.74-18.92c3.14-0.63,6.21-1.45,9.2-2.46l13.55,14.01l17.46-10.08l-5.36-18.77c2.38-2.1,4.62-4.34,6.72-6.72
				l18.77,5.36l10.08-17.46l-14.01-13.55c1.01-2.99,1.83-6.06,2.45-9.2C351.8,213.2,370.72,208.46,370.72,208.46z M278.11,229.25
				c-17.05,0-30.87-13.82-30.87-30.87s13.82-30.87,30.87-30.87s30.87,13.82,30.87,30.87S295.16,229.25,278.11,229.25z"/>
		</g>
	</g>
	<rect y="0" class="st1" width="512" height="512"/>
</g>
</svg>
